<svg xmlns="http://www.w3.org/2000/svg" width="14.049" height="14.049" viewBox="0 0 14.049 14.049">
  <path id="calendar" d="M12.293,1.756h-.585V.585A.586.586,0,0,0,11.122,0h-.585a.586.586,0,0,0-.585.585V1.756H4.1V.585A.586.586,0,0,0,3.512,0H2.927a.586.586,0,0,0-.585.585V1.756H1.756A1.758,1.758,0,0,0,0,3.512v8.78a1.758,1.758,0,0,0,1.756,1.756H12.293a1.758,1.758,0,0,0,1.756-1.756V3.512a1.758,1.758,0,0,0-1.756-1.756Zm.585,10.536a.586.586,0,0,1-.585.585H1.756a.586.586,0,0,1-.585-.585V5.877H12.878Zm0,0" transform="translate(0)" fill="#313131"/>
</svg>
