<svg id="calendar-filled" xmlns="http://www.w3.org/2000/svg" width="13.396" height="13.396" viewBox="0 0 13.396 13.396">
  <g id="Group_231" data-name="Group 231">
    <g id="Group_230" data-name="Group 230">
      <path id="Path_136" data-name="Path 136" d="M11.827,1.047H11.2V0H10.152V1.047H3.244V0H2.2V1.047H1.57A1.572,1.572,0,0,0,0,2.617v9.21A1.572,1.572,0,0,0,1.57,13.4H11.827a1.572,1.572,0,0,0,1.57-1.57V2.617A1.572,1.572,0,0,0,11.827,1.047Zm.523,10.78a.524.524,0,0,1-.523.523H1.57a.524.524,0,0,1-.523-.523V4.919h11.3Zm0-7.954H1.047V2.617a.524.524,0,0,1,.523-.523H2.2V3.14H3.244V2.093h6.908V3.14H11.2V2.093h.628a.524.524,0,0,1,.523.523Z" fill="#444"/>
    </g>
  </g>
  <g id="Group_233" data-name="Group 233" transform="translate(2 5.888)">
    <g id="Group_232" data-name="Group 232" transform="translate(0 0)">
      <rect id="Rectangle_70" data-name="Rectangle 70" width="1" height="1" transform="translate(0.352)" fill="#444"/>
    </g>
  </g>
  <g id="Group_235" data-name="Group 235" transform="translate(4 5.888)">
    <g id="Group_234" data-name="Group 234" transform="translate(0 0)">
      <rect id="Rectangle_71" data-name="Rectangle 71" width="1" height="1" transform="translate(0.352)" fill="#444"/>
    </g>
  </g>
  <g id="Group_237" data-name="Group 237" transform="translate(6 5.888)">
    <g id="Group_236" data-name="Group 236" transform="translate(0 0)">
      <rect id="Rectangle_72" data-name="Rectangle 72" width="1" height="1" transform="translate(0.352)" fill="#444"/>
    </g>
  </g>
  <g id="Group_239" data-name="Group 239" transform="translate(8 5.888)">
    <g id="Group_238" data-name="Group 238" transform="translate(0 0)">
      <rect id="Rectangle_73" data-name="Rectangle 73" width="1" height="1" transform="translate(0.352)" fill="#444"/>
    </g>
  </g>
  <g id="Group_241" data-name="Group 241" transform="translate(10 5.888)">
    <g id="Group_240" data-name="Group 240" transform="translate(0 0)">
      <rect id="Rectangle_74" data-name="Rectangle 74" width="1" height="1" transform="translate(0.352)" fill="#444"/>
    </g>
  </g>
  <g id="Group_243" data-name="Group 243" transform="translate(2 7.888)">
    <g id="Group_242" data-name="Group 242" transform="translate(0 0)">
      <rect id="Rectangle_75" data-name="Rectangle 75" width="1" height="1" transform="translate(0.352)" fill="#444"/>
    </g>
  </g>
  <g id="Group_245" data-name="Group 245" transform="translate(4 7.888)">
    <g id="Group_244" data-name="Group 244" transform="translate(0 0)">
      <rect id="Rectangle_76" data-name="Rectangle 76" width="1" height="1" transform="translate(0.352)" fill="#444"/>
    </g>
  </g>
  <g id="Group_247" data-name="Group 247" transform="translate(6 7.888)">
    <g id="Group_246" data-name="Group 246" transform="translate(0 0)">
      <rect id="Rectangle_77" data-name="Rectangle 77" width="1" height="1" transform="translate(0.352)" fill="#444"/>
    </g>
  </g>
  <g id="Group_249" data-name="Group 249" transform="translate(8 7.888)">
    <g id="Group_248" data-name="Group 248" transform="translate(0 0)">
      <rect id="Rectangle_78" data-name="Rectangle 78" width="1" height="1" transform="translate(0.352)" fill="#444"/>
    </g>
  </g>
  <g id="Group_251" data-name="Group 251" transform="translate(2 9.888)">
    <g id="Group_250" data-name="Group 250" transform="translate(0 0)">
      <rect id="Rectangle_79" data-name="Rectangle 79" width="1" height="1" transform="translate(0.352)" fill="#444"/>
    </g>
  </g>
  <g id="Group_253" data-name="Group 253" transform="translate(4 9.888)">
    <g id="Group_252" data-name="Group 252" transform="translate(0 0)">
      <rect id="Rectangle_80" data-name="Rectangle 80" width="1" height="1" transform="translate(0.352)" fill="#444"/>
    </g>
  </g>
  <g id="Group_255" data-name="Group 255" transform="translate(6 9.888)">
    <g id="Group_254" data-name="Group 254" transform="translate(0 0)">
      <rect id="Rectangle_81" data-name="Rectangle 81" width="1" height="1" transform="translate(0.352)" fill="#444"/>
    </g>
  </g>
  <g id="Group_257" data-name="Group 257" transform="translate(8 9.888)">
    <g id="Group_256" data-name="Group 256" transform="translate(0 0)">
      <rect id="Rectangle_82" data-name="Rectangle 82" width="1" height="1" transform="translate(0.352)" fill="#444"/>
    </g>
  </g>
  <g id="Group_259" data-name="Group 259" transform="translate(10 7.888)">
    <g id="Group_258" data-name="Group 258" transform="translate(0 0)">
      <rect id="Rectangle_83" data-name="Rectangle 83" width="1" height="1" transform="translate(0.352)" fill="#444"/>
    </g>
  </g>
</svg>
