<svg id="chip" xmlns="http://www.w3.org/2000/svg" width="34.359" height="33.431" viewBox="0 0 34.359 33.431">
  <defs>
    <style>
      .cls-1 {
        fill: #3a3a3a;
      }
    </style>
  </defs>
  <path id="Path_29" data-name="Path 29" class="cls-1" d="M30.759,20.244h5.68a1.385,1.385,0,0,0,1.539.823,1.334,1.334,0,0,0,0-2.633,1.385,1.385,0,0,0-1.539.823h-5.68V16.833h3.661a.5.5,0,0,0,.507-.494V13.088H36.44a1.385,1.385,0,0,0,1.539.823,1.334,1.334,0,0,0,0-2.633,1.385,1.385,0,0,0-1.539.823H34.421a.5.5,0,0,0-.507.494v3.252H30.759v-2.5a.5.5,0,0,0-.507-.494H27.681V9.782h3.342a.5.5,0,0,0,.507-.494V7.324a1.333,1.333,0,0,0,.845-1.5,1.384,1.384,0,0,0-2.7,0,1.333,1.333,0,0,0,.845,1.5V8.795H27.174a.5.5,0,0,0-.507.494v3.562h-2.49V7.324a1.333,1.333,0,0,0,.845-1.5,1.384,1.384,0,0,0-2.7,0,1.333,1.333,0,0,0,.845,1.5v5.526H20.674V7.324a1.334,1.334,0,0,0,.846-1.5,1.385,1.385,0,0,0-2.706,0,1.334,1.334,0,0,0,.846,1.5v5.527h-2.49V9.288a.5.5,0,0,0-.507-.494H13.319V7.324a1.334,1.334,0,0,0,.846-1.5,1.385,1.385,0,0,0-2.706,0,1.334,1.334,0,0,0,.846,1.5V9.288a.5.5,0,0,0,.507.494h3.342v3.069H13.583a.5.5,0,0,0-.507.494v2.5H9.922V12.594a.5.5,0,0,0-.507-.494H7.4a1.384,1.384,0,0,0-1.538-.822,1.333,1.333,0,0,0,0,2.632A1.384,1.384,0,0,0,7.4,13.088H8.907V16.34a.5.5,0,0,0,.507.494h3.661v2.423H7.4a1.384,1.384,0,0,0-1.538-.822,1.333,1.333,0,0,0,0,2.631A1.384,1.384,0,0,0,7.4,20.244h5.68v2.42H7.4a1.385,1.385,0,0,0-1.539-.823,1.334,1.334,0,0,0,0,2.633A1.385,1.385,0,0,0,7.4,23.651h5.68v2.423H9.415a.5.5,0,0,0-.507.494V29.82H7.4A1.385,1.385,0,0,0,5.857,29a1.334,1.334,0,0,0,0,2.633A1.385,1.385,0,0,0,7.4,30.807H9.415a.5.5,0,0,0,.507-.494V27.061h3.154v2.5a.5.5,0,0,0,.507.494h2.571v3.069H12.812a.5.5,0,0,0-.507.494v1.964a1.333,1.333,0,0,0-.845,1.5,1.384,1.384,0,0,0,2.7,0,1.333,1.333,0,0,0-.845-1.5V34.113h3.342a.5.5,0,0,0,.507-.494V30.056h2.49v5.526a1.333,1.333,0,0,0-.845,1.5,1.384,1.384,0,0,0,2.7,0,1.333,1.333,0,0,0-.845-1.5V30.056h2.487v5.527a1.334,1.334,0,0,0-.846,1.5,1.385,1.385,0,0,0,2.706,0,1.334,1.334,0,0,0-.846-1.5V30.056h2.49v3.562a.5.5,0,0,0,.507.494h3.342v1.471a1.334,1.334,0,0,0-.845,1.5,1.385,1.385,0,0,0,2.705,0,1.334,1.334,0,0,0-.845-1.5V33.619a.5.5,0,0,0-.507-.494H27.681V30.056h2.571a.5.5,0,0,0,.507-.494v-2.5h3.154v3.252a.5.5,0,0,0,.507.494H36.44a1.384,1.384,0,0,0,1.538.822,1.333,1.333,0,0,0,0-2.631,1.384,1.384,0,0,0-1.538.822H34.928V26.567a.5.5,0,0,0-.507-.494H30.759V23.651h5.68a1.384,1.384,0,0,0,1.538.822,1.333,1.333,0,0,0,0-2.631,1.384,1.384,0,0,0-1.538.822h-5.68Zm6.957-.846a.353.353,0,1,1-.362.353.358.358,0,0,1,.362-.353Zm0-7.156a.353.353,0,1,1-.362.353.358.358,0,0,1,.362-.353ZM31.024,5.729a.353.353,0,1,1-.362.353A.358.358,0,0,1,31.024,5.729Zm-7.354,0a.353.353,0,1,1-.362.353.358.358,0,0,1,.362-.353Zm-3.5,0a.353.353,0,1,1-.362.353.358.358,0,0,1,.362-.353Zm-7.354,0a.353.353,0,1,1-.362.353.358.358,0,0,1,.362-.353ZM6.119,12.946a.353.353,0,1,1,.362-.353.358.358,0,0,1-.362.353Zm0,7.156a.353.353,0,1,1,.362-.353A.358.358,0,0,1,6.119,20.1Zm0,3.408a.353.353,0,1,1,.362-.353A.358.358,0,0,1,6.119,23.51Zm0,7.156a.353.353,0,1,1,.362-.353A.358.358,0,0,1,6.119,30.666Zm6.693,6.513a.353.353,0,1,1,.362-.353.358.358,0,0,1-.362.353Zm7.354,0a.353.353,0,1,1,.362-.353.358.358,0,0,1-.362.353Zm3.5,0a.353.353,0,1,1,.362-.353A.358.358,0,0,1,23.669,37.179Zm7.354,0a.353.353,0,1,1,.362-.353.358.358,0,0,1-.362.353Zm6.693-7.218a.353.353,0,1,1-.362.353A.358.358,0,0,1,37.717,29.961Zm0-7.156a.353.353,0,1,1-.362.353.358.358,0,0,1,.362-.353Zm-7.972,6.264H14.091V13.838H29.745Z" transform="translate(-4.738 -4.738)"/>
  <path id="Path_30" data-name="Path 30" class="cls-1" d="M53.289,42.5H42.958a.458.458,0,0,0-.458.458V53.289a.458.458,0,0,0,.458.458H53.289a.458.458,0,0,0,.458-.458V42.958a.458.458,0,0,0-.458-.458Zm-.458,10.331H43.415V43.415h9.416Z" transform="translate(-30.944 -31.408)"/>
  <path id="Path_31" data-name="Path 31" class="cls-1" d="M76.458,56.706a.458.458,0,0,0,.458-.458V53.666a.458.458,0,0,0-.915,0v2.583A.458.458,0,0,0,76.458,56.706Z" transform="translate(-55.28 -39.41)"/>
</svg>
