<svg xmlns="http://www.w3.org/2000/svg" width="58.137" height="44.284" viewBox="0 0 58.137 44.284"><path d="M53.027,61H5.11A5.118,5.118,0,0,0,0,66.11v34.065a5.118,5.118,0,0,0,5.11,5.11H53.027a5.118,5.118,0,0,0,5.11-5.11V66.11A5.118,5.118,0,0,0,53.027,61Zm-.706,3.406L29.177,87.551,5.832,64.406ZM3.406,99.469V66.8L19.812,83.063Zm2.409,2.409L22.231,85.462l5.752,5.7a1.7,1.7,0,0,0,2.4-.005l5.609-5.608,16.327,16.327ZM54.73,99.469,38.4,83.142,54.73,66.815Z" transform="translate(0 -61)" fill="#474747"/></svg>