<svg id="gear" xmlns="http://www.w3.org/2000/svg" width="33" height="33" viewBox="0 0 33 33">
  <defs>
    <style>
      .cls-1 {
        fill: #3a3a3a;
      }
    </style>
  </defs>
  <path id="Path_32" data-name="Path 32" class="cls-1" d="M17.536,33H15.464a3.041,3.041,0,0,1-3.038-3.038v-.7a13.322,13.322,0,0,1-2.069-.859l-.5.5a3.038,3.038,0,0,1-4.3,0L4.1,27.435a3.038,3.038,0,0,1,0-4.3l.5-.5a13.323,13.323,0,0,1-.859-2.069h-.7A3.041,3.041,0,0,1,0,17.536V15.464a3.041,3.041,0,0,1,3.038-3.038h.7A13.326,13.326,0,0,1,4.6,10.358l-.5-.5a3.038,3.038,0,0,1,0-4.3L5.565,4.1a3.038,3.038,0,0,1,4.3,0l.5.5a13.335,13.335,0,0,1,2.069-.859v-.7A3.041,3.041,0,0,1,15.465,0h2.071a3.041,3.041,0,0,1,3.038,3.038v.7a13.322,13.322,0,0,1,2.069.859l.5-.5a3.038,3.038,0,0,1,4.3,0L28.9,5.565a3.038,3.038,0,0,1,0,4.3l-.5.5a13.324,13.324,0,0,1,.859,2.069h.7A3.041,3.041,0,0,1,33,15.464v2.071a3.041,3.041,0,0,1-3.038,3.038h-.7a13.326,13.326,0,0,1-.859,2.069l.5.5a3.038,3.038,0,0,1,0,4.3L27.435,28.9a3.038,3.038,0,0,1-4.3,0l-.5-.5a13.335,13.335,0,0,1-2.069.859v.7A3.041,3.041,0,0,1,17.536,33Zm-6.855-6.628A11.4,11.4,0,0,0,13.635,27.6a.967.967,0,0,1,.725.936v1.428a1.106,1.106,0,0,0,1.1,1.1h2.071a1.106,1.106,0,0,0,1.1-1.1V28.535a.967.967,0,0,1,.725-.936,11.4,11.4,0,0,0,2.954-1.226.967.967,0,0,1,1.176.149l1.011,1.011a1.1,1.1,0,0,0,1.561,0l1.465-1.465a1.1,1.1,0,0,0,0-1.561l-1.012-1.012a.967.967,0,0,1-.149-1.176A11.394,11.394,0,0,0,27.6,19.365a.967.967,0,0,1,.936-.725h1.427a1.106,1.106,0,0,0,1.1-1.1V15.465a1.106,1.106,0,0,0-1.1-1.1H28.535a.967.967,0,0,1-.936-.725,11.4,11.4,0,0,0-1.226-2.954.967.967,0,0,1,.149-1.176l1.011-1.011a1.1,1.1,0,0,0,0-1.561L26.068,5.468a1.1,1.1,0,0,0-1.561,0L23.495,6.479a.967.967,0,0,1-1.176.149A11.4,11.4,0,0,0,19.365,5.4a.967.967,0,0,1-.725-.936V3.038a1.106,1.106,0,0,0-1.1-1.1H15.465a1.106,1.106,0,0,0-1.1,1.1V4.465a.967.967,0,0,1-.725.936,11.4,11.4,0,0,0-2.954,1.226.967.967,0,0,1-1.176-.149L8.494,5.468a1.1,1.1,0,0,0-1.561,0L5.468,6.932a1.1,1.1,0,0,0,0,1.561L6.479,9.505a.967.967,0,0,1,.149,1.176A11.394,11.394,0,0,0,5.4,13.635a.967.967,0,0,1-.936.725H3.038a1.106,1.106,0,0,0-1.1,1.1v2.071a1.106,1.106,0,0,0,1.1,1.1H4.465a.967.967,0,0,1,.936.725,11.4,11.4,0,0,0,1.226,2.954.967.967,0,0,1-.149,1.176L5.468,24.506a1.1,1.1,0,0,0,0,1.561l1.465,1.465a1.1,1.1,0,0,0,1.561,0l1.012-1.012a.971.971,0,0,1,1.176-.149Z" transform="translate(0 0)"/>
  <path id="Path_33" data-name="Path 33" class="cls-1" d="M151.78,158.96a7.18,7.18,0,1,1,7.18-7.18A7.188,7.188,0,0,1,151.78,158.96Zm0-12.427a5.246,5.246,0,1,0,5.246,5.246A5.252,5.252,0,0,0,151.78,146.534Z" transform="translate(-135.28 -135.28)"/>
</svg>
