<svg xmlns="http://www.w3.org/2000/svg" width="87.931" height="79.714" viewBox="0 0 87.931 79.714"><g transform="translate(0 0)"><g transform="translate(0 0)"><path d="M86.415,58.717H67.025V54.973a1.516,1.516,0,0,0-.773-1.319L45.482,41.98V36.037H49.59V38.3a1.516,1.516,0,0,0,1.516,1.516H63.492a1.516,1.516,0,0,0,1.425-2.032l-1.243-3.532,1.258-3.457a1.516,1.516,0,0,0-1.425-2.032h-5.64v-2.2a1.516,1.516,0,0,0-1.516-1.516H45.482V23.2a1.516,1.516,0,0,0-3.032,0V41.98L21.68,53.638a1.516,1.516,0,0,0-.773,1.319V58.7H1.516A1.516,1.516,0,0,0,0,60.218v39.66a1.516,1.516,0,0,0,1.516,1.516h84.9a1.516,1.516,0,0,0,1.516-1.516V60.233A1.516,1.516,0,0,0,86.415,58.717Zm-28.547-24.2-.061-.061V31.853h3.457l-.622,1.941a1.516,1.516,0,0,0,0,1.046l.713,1.941H52.622v-.743h3.729A1.516,1.516,0,0,0,57.868,34.521ZM45.482,28.078h9.354V33H45.482ZM20.906,98.362H3.032V61.749H20.906Zm21.543,0H34.49V81.049H42.45Zm10.991,0H45.482V81.049h7.959Zm10.612,0h-7.58V79.533a1.516,1.516,0,0,0-1.516-1.516H32.974a1.516,1.516,0,0,0-1.516,1.516V98.362h-7.58V55.913L43.966,44.6,63.993,55.852l.061,4.366Zm20.846,0H67.025V61.749H84.9Z" transform="translate(0 -21.68)" fill="#474747"/></g><g transform="translate(37.613 27.562)"><g transform="translate(0 0)"><path d="M204.832,167.12a6.352,6.352,0,1,0,6.352,6.337A6.367,6.367,0,0,0,204.832,167.12Zm0,9.672a3.32,3.32,0,1,1,3.32-3.3h.015A3.32,3.32,0,0,1,204.832,176.792Z" transform="translate(-198.48 -167.12)" fill="#474747"/></g></g><g transform="translate(6.686 43.405)"><rect width="3.032" height="6.064" fill="#474747"/></g><g transform="translate(14.16 43.405)"><rect width="3.032" height="6.064" fill="#474747"/></g><g transform="translate(28.487 43.405)"><rect width="6.064" height="3.032" fill="#474747"/></g><g transform="translate(40.933 43.405)"><rect width="6.064" height="3.032" fill="#474747"/></g><g transform="translate(53.38 43.405)"><rect width="6.064" height="3.032" fill="#474747"/></g><g transform="translate(28.487 50.469)"><rect width="6.064" height="3.032" fill="#474747"/></g><g transform="translate(40.933 50.469)"><rect width="6.064" height="3.032" fill="#474747"/></g><g transform="translate(53.38 50.469)"><rect width="6.064" height="3.032" fill="#474747"/></g><g transform="translate(6.686 55.336)"><rect width="3.032" height="6.064" fill="#474747"/></g><g transform="translate(14.16 55.336)"><rect width="3.032" height="6.064" fill="#474747"/></g><g transform="translate(6.686 67.282)"><rect width="3.032" height="6.064" fill="#474747"/></g><g transform="translate(14.16 67.282)"><rect width="3.032" height="6.064" fill="#474747"/></g><g transform="translate(70.739 43.405)"><rect width="3.032" height="6.064" fill="#474747"/></g><g transform="translate(78.213 43.405)"><rect width="3.032" height="6.064" fill="#474747"/></g><g transform="translate(70.739 55.336)"><rect width="3.032" height="6.064" fill="#474747"/></g><g transform="translate(78.213 55.336)"><rect width="3.032" height="6.064" fill="#474747"/></g><g transform="translate(70.739 67.282)"><rect width="3.032" height="6.064" fill="#474747"/></g><g transform="translate(78.213 67.282)"><rect width="3.032" height="6.064" fill="#474747"/></g></g></svg>