<svg xmlns="http://www.w3.org/2000/svg" width="15.852" height="11.889" viewBox="0 0 15.852 11.889">
  <g id="mail_1_" data-name="mail (1)" transform="translate(0 -64)">
    <g id="Group_150" data-name="Group 150" transform="translate(0 64)">
      <g id="Group_149" data-name="Group 149">
        <path id="Path_118" data-name="Path 118" d="M7.031,64.965c2.176,1.842,5.993,5.084,7.115,6.095a.663.663,0,0,0,.959,0c1.123-1.012,4.94-4.253,7.116-6.1a.33.33,0,0,0,.046-.456A1.311,1.311,0,0,0,21.23,64H8.021a1.311,1.311,0,0,0-1.037.509A.33.33,0,0,0,7.031,64.965Z" transform="translate(-6.7 -64)" fill="#5a5a5a"/>
        <path id="Path_119" data-name="Path 119" d="M343.528,126.442a.329.329,0,0,0-.352.048c-1.425,1.208-3.3,2.8-4.718,4.021a.33.33,0,0,0,.009.508c1.315,1.054,3.3,2.5,4.729,3.533a.33.33,0,0,0,.523-.268v-7.542A.33.33,0,0,0,343.528,126.442Z" transform="translate(-327.868 -124.479)" fill="#5a5a5a"/>
        <path id="Path_120" data-name="Path 120" d="M.523,134.561c1.432-1.03,3.415-2.479,4.73-3.533a.33.33,0,0,0,.009-.508C3.846,129.3,1.969,127.707.544,126.5a.33.33,0,0,0-.544.252v7.542a.33.33,0,0,0,.523.268Z" transform="translate(0 -124.488)" fill="#5a5a5a"/>
        <path id="Path_121" data-name="Path 121" d="M23.8,288.757c-1.383-.989-3.929-2.833-5.45-4.067a.331.331,0,0,0-.425.007c-.3.26-.548.48-.725.639a1.337,1.337,0,0,1-1.843,0c-.176-.159-.426-.379-.724-.638a.329.329,0,0,0-.425-.007c-1.515,1.23-4.065,3.076-5.45,4.067a.33.33,0,0,0-.05.493,1.323,1.323,0,0,0,.966.424h13.21a1.325,1.325,0,0,0,.966-.424.33.33,0,0,0-.05-.493Z" transform="translate(-8.357 -277.785)" fill="#5a5a5a"/>
      </g>
    </g>
  </g>
</svg>
