<svg xmlns="http://www.w3.org/2000/svg" width="37.224" height="37.073" viewBox="0 0 37.224 37.073">
  <g id="manager" transform="translate(0 -1.04)">
    <g id="Group_83" data-name="Group 83" transform="translate(16.458 28.389)">
      <g id="Group_82" data-name="Group 82">
        <path id="Path_80" data-name="Path 80" d="M227.457,377.332a.629.629,0,0,0-.88.135l-.078.106a.629.629,0,0,0,1.013.747l.079-.107A.629.629,0,0,0,227.457,377.332Z" transform="translate(-226.377 -377.21)" fill="#3a3a3a"/>
      </g>
    </g>
    <g id="Group_85" data-name="Group 85" transform="translate(14.709 28.495)">
      <g id="Group_84" data-name="Group 84">
        <path id="Path_81" data-name="Path 81" d="M205.311,384.671l-1.619-2.943,1.511-2.058a.629.629,0,1,0-1.014-.745l-1.749,2.382a.629.629,0,0,0-.044.676l1.812,3.295h0a.629.629,0,1,0,1.1-.607Z" transform="translate(-202.318 -378.668)" fill="#3a3a3a"/>
      </g>
    </g>
    <g id="Group_87" data-name="Group 87" transform="translate(19.454 28.504)">
      <g id="Group_86" data-name="Group 86">
        <path id="Path_82" data-name="Path 82" d="M270.529,381.434l-1.742-2.372a.629.629,0,0,0-1.015.745l1.5,2.048-1.608,2.923a.629.629,0,1,0,1.1.607l1.8-3.275A.629.629,0,0,0,270.529,381.434Z" transform="translate(-267.591 -378.804)" fill="#3a3a3a"/>
      </g>
    </g>
    <g id="Group_89" data-name="Group 89" transform="translate(13.497 21.171)">
      <g id="Group_88" data-name="Group 88">
        <path id="Path_83" data-name="Path 83" d="M195.544,278.011a.629.629,0,0,0-.65.039,10.034,10.034,0,0,0-1.032.812,4.438,4.438,0,0,1-3.366,1.315.616.616,0,0,0-.115-.007,6.388,6.388,0,0,1-3.153-1.6c-.2-.153-.4-.3-.6-.434a.629.629,0,0,0-.981.522v2.159a.63.63,0,0,0,.236.491.6.6,0,0,0,.055.039l4.463,2.982,0,0,.012.008a.63.63,0,0,0,.7,0l.006,0,.007,0,4.452-2.975c.018-.011.035-.024.052-.037a.629.629,0,0,0,.242-.5v-2.25A.629.629,0,0,0,195.544,278.011Zm-.922,2.471-3.856,2.577-3.856-2.577v-.572a6.883,6.883,0,0,0,3.446,1.519h.007a5.718,5.718,0,0,0,4.259-1.558v.611Z" transform="translate(-185.651 -277.939)" fill="#3a3a3a"/>
      </g>
    </g>
    <g id="Group_91" data-name="Group 91" transform="translate(16.536 26.418)">
      <g id="Group_90" data-name="Group 90">
        <path id="Path_84" data-name="Path 84" d="M230.143,350.636a.629.629,0,0,0-1.128-.269l-1.447,1.97a.629.629,0,1,0,1.015.745l1.439-1.96a.628.628,0,0,0,.13-.383A.643.643,0,0,0,230.143,350.636Z" transform="translate(-227.446 -350.11)" fill="#3a3a3a"/>
      </g>
    </g>
    <g id="Group_93" data-name="Group 93" transform="translate(9.046 1.04)">
      <g id="Group_92" data-name="Group 92" transform="translate(0 0)">
        <path id="Path_85" data-name="Path 85" d="M143.587,6.655a4.04,4.04,0,0,0-2.31-3.066,2.164,2.164,0,0,0-.185-1.321,2.469,2.469,0,0,0-1.87-1.217.627.627,0,0,0-.12-.012h-8.447a6.228,6.228,0,0,0-6.221,6.221v3.315a3.8,3.8,0,0,0,.829,2.371,3.063,3.063,0,0,1,.64,1.777.629.629,0,0,0,1.258-.036V10.366A2.768,2.768,0,0,1,129.3,8.209h2.732a3.073,3.073,0,0,0,.94-.146c.52-.167,1.344-.473,1.944-.7a1.824,1.824,0,0,1,1.251-.016l2.925,1.027a2.675,2.675,0,0,1,1.756,2.025v5.186a.629.629,0,0,0,.582.627l.047,0a.63.63,0,0,0,.622-.536,8.893,8.893,0,0,1,1.064-2.939,2.82,2.82,0,0,0,.431-1.492V6.734A.633.633,0,0,0,143.587,6.655Zm-1.254,4.591a1.56,1.56,0,0,1-.23.808v-1.7a.628.628,0,0,0,0-.068,3.923,3.923,0,0,0-2.581-3.1l-.008,0-2.93-1.028a3.084,3.084,0,0,0-2.115.027c-.84.319-1.491.554-1.881.679a1.816,1.816,0,0,1-.555.086h-2.783a.641.641,0,0,0-.081.005,4.007,4.007,0,0,0-3.248,3.2.63.63,0,0,0-.015.137v1.3a2.557,2.557,0,0,1-.21-1.014V7.261A4.968,4.968,0,0,1,130.654,2.3h8.384a1.344,1.344,0,0,1,.929.534,1.22,1.22,0,0,1-.027.9.629.629,0,0,0,.422.879,2.7,2.7,0,0,1,1.972,2.171v4.464Z" transform="translate(-124.434 -1.04)" fill="#3a3a3a"/>
      </g>
    </g>
    <g id="Group_95" data-name="Group 95" transform="translate(10.515 5.984)">
      <g id="Group_94" data-name="Group 94">
        <path id="Path_86" data-name="Path 86" d="M160.826,73.348a3.923,3.923,0,0,0-2.581-3.1l-.009,0-2.93-1.028a3.086,3.086,0,0,0-2.115.027c-.84.319-1.491.554-1.881.679a1.816,1.816,0,0,1-.555.086h-2.783a.64.64,0,0,0-.081.005,4.007,4.007,0,0,0-3.248,3.2.63.63,0,0,0-.015.137v5.41s0,.009,0,.014c0,.188.137,4.626,3.2,6.656l.016.011.04.028c.175.118.35.246.522.381.893.7,2.577,1.866,3.905,1.866h.007a3.483,3.483,0,0,0,.376.019,5.948,5.948,0,0,0,3.967-1.651,8.777,8.777,0,0,1,.9-.709l.047-.033.047-.032c1.023-.687,2.795-2.46,3.167-6.614,0-.019,0-.037,0-.056V73.416A.659.659,0,0,0,160.826,73.348Zm-1.255,5.269c-.343,3.749-1.94,5.2-2.612,5.653l-.071.049-.035.025a10.028,10.028,0,0,0-1.032.812,4.439,4.439,0,0,1-3.37,1.314.633.633,0,0,0-.111-.007,6.388,6.388,0,0,1-3.153-1.6c-.2-.153-.4-.3-.6-.434l-.016-.011-.048-.033c-2.475-1.638-2.637-5.471-2.642-5.631V73.428a2.768,2.768,0,0,1,2.136-2.158h2.733a3.073,3.073,0,0,0,.94-.146c.52-.167,1.344-.473,1.944-.7a1.824,1.824,0,0,1,1.251-.016l2.925,1.027a2.675,2.675,0,0,1,1.756,2.025v5.158Z" transform="translate(-144.628 -69.046)" fill="#3a3a3a"/>
      </g>
    </g>
    <g id="Group_97" data-name="Group 97" transform="translate(16.475 26.419)">
      <g id="Group_96" data-name="Group 96">
        <path id="Path_87" data-name="Path 87" d="M229.306,350.461a.629.629,0,0,0-1.07-.091l-1.508,2.053a.629.629,0,0,0,1.014.746l1.508-2.046a.651.651,0,0,0,.123-.381A.631.631,0,0,0,229.306,350.461Z" transform="translate(-226.606 -350.113)" fill="#3a3a3a"/>
      </g>
    </g>
    <g id="Group_99" data-name="Group 99" transform="translate(17.987 36.705)">
      <g id="Group_98" data-name="Group 98">
        <path id="Path_88" data-name="Path 88" d="M248.634,491.8a.629.629,0,0,0-.879-.029l-.144.132a.629.629,0,0,0-.125.771l0,.008a.629.629,0,0,0,.995.138l.139-.14A.629.629,0,0,0,248.634,491.8Z" transform="translate(-247.406 -491.602)" fill="#3a3a3a"/>
      </g>
    </g>
    <g id="Group_101" data-name="Group 101" transform="translate(17.834 36.705)">
      <g id="Group_100" data-name="Group 100">
        <path id="Path_89" data-name="Path 89" d="M246.5,491.9l-.144-.132a.629.629,0,0,0-.87.91l.14.14a.629.629,0,0,0,.445.184.617.617,0,0,0,.089-.006.629.629,0,0,0,.463-.32l0-.008A.63.63,0,0,0,246.5,491.9Z" transform="translate(-245.301 -491.603)" fill="#3a3a3a"/>
      </g>
    </g>
    <g id="Group_103" data-name="Group 103" transform="translate(17.976 36.841)">
      <g id="Group_102" data-name="Group 102">
        <path id="Path_90" data-name="Path 90" d="M248.319,493.642h0a.629.629,0,0,0-.859,0l0,0a.629.629,0,0,0-.02.911l.007.007a.629.629,0,0,0,.889,0l.007-.007a.63.63,0,0,0-.021-.91Z" transform="translate(-247.252 -493.472)" fill="#3a3a3a"/>
      </g>
    </g>
    <g id="Group_105" data-name="Group 105" transform="translate(17.995 26.409)">
      <g id="Group_104" data-name="Group 104">
        <path id="Path_91" data-name="Path 91" d="M248.333,350.01a.629.629,0,1,0,.439.6v0A.629.629,0,0,0,248.333,350.01Z" transform="translate(-247.512 -349.981)" fill="#3a3a3a"/>
      </g>
    </g>
    <g id="Group_107" data-name="Group 107" transform="translate(17.982 26.407)">
      <g id="Group_106" data-name="Group 106">
        <path id="Path_92" data-name="Path 92" d="M248.484,350.223l-.005-.007a.629.629,0,0,0-1.135.374v.011a.631.631,0,0,0,.631.627.637.637,0,0,0,.351-.106.629.629,0,0,0,.159-.9Z" transform="translate(-247.343 -349.961)" fill="#3a3a3a"/>
      </g>
    </g>
    <g id="Group_109" data-name="Group 109" transform="translate(17.982 23.421)">
      <g id="Group_108" data-name="Group 108">
        <path id="Path_93" data-name="Path 93" d="M255.46,310.158a.629.629,0,0,0-.376-.37l-2.413-.865c-.02-.007-.04-.013-.06-.018a.629.629,0,0,0-.5.087l-4.471,2.988,0,0,.351.522-.359-.517a.63.63,0,0,0-.16.9l3.273,4.458a.629.629,0,0,0,.507.257h.041a.629.629,0,0,0,.51-.325l3.625-6.59A.629.629,0,0,0,255.46,310.158Zm-4.29,5.646-2.3-3.134,3.675-2.455,1.42.509Z" transform="translate(-247.344 -308.887)" fill="#3a3a3a"/>
      </g>
    </g>
    <g id="Group_111" data-name="Group 111" transform="translate(11.084 23.421)">
      <g id="Group_110" data-name="Group 110">
        <path id="Path_94" data-name="Path 94" d="M160.609,312.406a.629.629,0,0,0-.269-.414l-4.486-3a.629.629,0,0,0-.562-.069l-2.413.865a.629.629,0,0,0-.339.9l3.625,6.59a.63.63,0,0,0,.51.325h.041a.629.629,0,0,0,.507-.257l1.749-2.382,0-.006,1.52-2.071A.629.629,0,0,0,160.609,312.406Zm-2.652,1.812,0,.006-1.161,1.582L154,310.726l1.42-.509,3.674,2.455Z" transform="translate(-152.461 -308.889)" fill="#3a3a3a"/>
      </g>
    </g>
    <g id="Group_113" data-name="Group 113" transform="translate(17.991 24.286)">
      <g id="Group_112" data-name="Group 112">
        <path id="Path_95" data-name="Path 95" d="M266.667,331.938l-.812-4.9a4.34,4.34,0,0,0-2.8-3.368l-7.854-2.842a.629.629,0,0,0-.777.873l1.64,3.289-1.609.025a.629.629,0,0,0-.548.921l.66,1.26-6.754,6.179-.02.019-.139.139a.629.629,0,0,0-.107.747l0,.009a.63.63,0,0,0,.552.327h16.3a2.3,2.3,0,0,0,2.269-2.676Zm-1.475,1.049a1.04,1.04,0,0,1-.794.368H249.693l6.079-5.561a.629.629,0,0,0,.133-.756l-.411-.784,1.587-.024a.629.629,0,0,0,.554-.91l-1.384-2.775,6.375,2.306a3.08,3.08,0,0,1,1.989,2.391l.812,4.9h0A1.039,1.039,0,0,1,265.192,332.987Z" transform="translate(-247.466 -320.787)" fill="#3a3a3a"/>
      </g>
    </g>
    <g id="Group_115" data-name="Group 115" transform="translate(17.982 36.847)">
      <g id="Group_114" data-name="Group 114">
        <path id="Path_96" data-name="Path 96" d="M248.409,493.725l-.007-.007a.629.629,0,0,0-.869.023l-.007.007a.629.629,0,0,0,.446,1.073h.014a.629.629,0,0,0,.422-1.1Z" transform="translate(-247.343 -493.555)" fill="#3a3a3a"/>
      </g>
    </g>
    <g id="Group_117" data-name="Group 117" transform="translate(17.973 36.837)">
      <g id="Group_116" data-name="Group 116">
        <path id="Path_97" data-name="Path 97" d="M248.275,493.574a.629.629,0,0,0-.973.165l0,.008a.629.629,0,0,0,.1.74l0,0a.629.629,0,0,0,.876.027l.007-.006a.629.629,0,0,0,.139-.184A.636.636,0,0,0,248.275,493.574Z" transform="translate(-247.22 -493.413)" fill="#3a3a3a"/>
      </g>
    </g>
    <g id="Group_119" data-name="Group 119" transform="translate(0 24.286)">
      <g id="Group_118" data-name="Group 118" transform="translate(0)">
        <path id="Path_98" data-name="Path 98" d="M19.055,333.537l0,0-.005-.005-.14-.139-.02-.019-6.754-6.179.66-1.26a.629.629,0,0,0-.548-.921l-1.609-.025,1.64-3.289a.629.629,0,0,0-.777-.873l-7.854,2.842a4.34,4.34,0,0,0-2.8,3.368l-.812,4.9A2.3,2.3,0,0,0,2.3,334.612H18.612a.629.629,0,0,0,.444-1.076ZM2.3,333.354a1.041,1.041,0,0,1-1.027-1.212l.812-4.9a3.08,3.08,0,0,1,1.989-2.391l6.375-2.306-1.384,2.775a.629.629,0,0,0,.554.91l1.587.024-.411.784a.629.629,0,0,0,.133.756l6.079,5.561Z" transform="translate(0 -320.786)" fill="#3a3a3a"/>
      </g>
    </g>
    <g id="Group_121" data-name="Group 121" transform="translate(16.458 26.422)">
      <g id="Group_120" data-name="Group 120">
        <path id="Path_99" data-name="Path 99" d="M230.672,353.02a.629.629,0,0,0-.1-.525l-1.532-2.086a.63.63,0,0,0-1.034.034l-1.5,2.04a.63.63,0,0,0-.01.734l.64.919-.682,4.3a.63.63,0,0,0,.07.4l1.461,2.657a.629.629,0,0,0,1.1,0l1.472-2.676a.63.63,0,0,0,.078-.3h0a.64.64,0,0,0-.008-.1l-.679-4.279.633-.909A.637.637,0,0,0,230.672,353.02Zm-2.142,6.866-.806-1.465.688-4.337a.629.629,0,0,0-.105-.458l-.527-.757.752-1.021.756,1.03-.521.748a.629.629,0,0,0-.105.458l.685,4.317Z" transform="translate(-226.376 -350.155)" fill="#3a3a3a"/>
      </g>
    </g>
  </g>
</svg>
