<svg id="money" xmlns="http://www.w3.org/2000/svg" width="30.337" height="35.07" viewBox="0 0 30.337 35.07">
  <defs>
    <style>
      .cls-1 {
        fill: #3a3a3a;
      }
    </style>
  </defs>
  <g id="Group_26" data-name="Group 26" transform="translate(16.913 10.199)">
    <g id="Group_25" data-name="Group 25" transform="translate(0)">
      <path id="Path_45" data-name="Path 45" class="cls-1" d="M271.468,139.518V127.53a.64.64,0,0,0-.677-.63h-2.62a.658.658,0,0,0-.7.63v10.818a6.318,6.318,0,0,0-1.286.169v-7.453a.663.663,0,0,0-.69-.643h-2.62a.652.652,0,0,0-.684.643V141.17a6.645,6.645,0,0,0-1.232,3.886,6.712,6.712,0,1,0,10.506-5.537Zm-2.64-11.264h1.286V138.8a6.031,6.031,0,0,0-1.286-.352Zm-5.28,3.52h1.286v7.21a6.892,6.892,0,0,0-1.286.772Zm8.739,16.01a5.356,5.356,0,1,1-6.654-7.677.643.643,0,0,0,.223-.088,5.253,5.253,0,0,1,1.828-.325c.142,0,.278.007.42.02h.007a5.23,5.23,0,0,1,2.3.731A5.354,5.354,0,0,1,272.287,147.784Z" transform="translate(-260.962 -126.9)"/>
    </g>
  </g>
  <g id="Group_28" data-name="Group 28" transform="translate(21.136 23.65)">
    <g id="Group_27" data-name="Group 27" transform="translate(0)">
      <path id="Path_46" data-name="Path 46" class="cls-1" d="M329.962,329.757a.856.856,0,1,1,.846-.86.679.679,0,0,0,.677.677.686.686,0,0,0,.69-.677,2.211,2.211,0,0,0-1.4-2.058v-.562a.677.677,0,1,0-1.354,0v.487a2.208,2.208,0,0,0-1.584,2.688,2.18,2.18,0,0,0,2.119,1.652.85.85,0,1,1-.853.846.679.679,0,0,0-.677-.677.657.657,0,0,0-.663.67v.007a2.216,2.216,0,0,0,1.652,2.132v.3a.677.677,0,1,0,1.354,0v-.372a2.2,2.2,0,0,0-.806-4.258Z" transform="translate(-327.761 -325.6)"/>
    </g>
  </g>
  <g id="Group_30" data-name="Group 30" transform="translate(6.284 19.135)">
    <g id="Group_29" data-name="Group 29">
      <path id="Path_47" data-name="Path 47" class="cls-1" d="M125.48,258.9h-2.64a.679.679,0,0,0-.677.677v10.628a.679.679,0,0,0,.677.677h2.64a.679.679,0,0,0,.677-.677V259.577A.679.679,0,0,0,125.48,258.9Zm-.677,10.7h-1.286v-9.342H124.8Z" transform="translate(-122.163 -258.9)"/>
    </g>
  </g>
  <g id="Group_32" data-name="Group 32" transform="translate(11.982 17.578)">
    <g id="Group_31" data-name="Group 31">
      <path id="Path_48" data-name="Path 48" class="cls-1" d="M204.48,235.9h-2.64a.679.679,0,0,0-.677.677V248.83a.679.679,0,0,0,.677.677h2.64a.679.679,0,0,0,.677-.677V236.577A.679.679,0,0,0,204.48,235.9Zm-.677,12.253h-1.286v-10.9H203.8Z" transform="translate(-201.163 -235.9)"/>
    </g>
  </g>
  <g id="Group_34" data-name="Group 34" transform="translate(0.55 24.957)">
    <g id="Group_33" data-name="Group 33" transform="translate(0)">
      <path id="Path_49" data-name="Path 49" class="cls-1" d="M46.48,344.9H43.84a.679.679,0,0,0-.677.677v4.806a.679.679,0,0,0,.677.677h2.64a.679.679,0,0,0,.677-.677v-4.806A.679.679,0,0,0,46.48,344.9Zm-.677,4.874H44.517v-3.52H45.8Z" transform="translate(-43.163 -344.9)"/>
    </g>
  </g>
  <g id="Group_36" data-name="Group 36">
    <g id="Group_35" data-name="Group 35" transform="translate(0)">
      <path id="Path_50" data-name="Path 50" class="cls-1" d="M62.315,0,57.4.007a.7.7,0,0,0-.726.67.7.7,0,0,0,.711.684H57.4l3.183-.007-7.8,7.318L50.064,6.126a.827.827,0,0,0-1.02,0l-13.8,13a.639.639,0,0,0,0,.948.761.761,0,0,0,1.02,0L49.561,7.548l2.723,2.586a.74.74,0,0,0,.51.217.786.786,0,0,0,.51-.217L61.6,2.315l-.007,3.012a.719.719,0,0,0,1.437,0L63.033.684A.706.706,0,0,0,62.315,0Z" transform="translate(-35.038 0)"/>
    </g>
  </g>
</svg>
