<svg id="people-managin" xmlns="http://www.w3.org/2000/svg" width="33.811" height="33.912" viewBox="0 0 33.811 33.912">
  <defs>
    <style>
      .cls-1 {
        fill: #3a3a3a;
      }
    </style>
  </defs>
  <path id="Path_51" data-name="Path 51" class="cls-1" d="M34.2,29.624a.5.5,0,0,0-.6.362,3.865,3.865,0,0,1-.685,1.419,3.243,3.243,0,0,0-1.353-2.022,2,2,0,0,0,.2-.874,1.923,1.923,0,1,0-3.845,0,2,2,0,0,0,.2.874A3.243,3.243,0,0,0,26.765,31.4a3.873,3.873,0,0,1,3.074-6.232,3.9,3.9,0,0,1,3.711,2.754.5.5,0,1,0,.952-.287,4.908,4.908,0,0,0-1.733-2.482,4.819,4.819,0,0,0-2.433-.954V21.622a1.218,1.218,0,0,0-1.217-1.217H18.23V18.352a1.9,1.9,0,0,0,1.776-1.888.75.75,0,0,1,1.282-.531,1.9,1.9,0,0,0,2.676,0l.53-.53a1.9,1.9,0,0,0,0-2.676.75.75,0,0,1,.531-1.282h.01A1.889,1.889,0,0,0,26.38,10.9a1.82,1.82,0,0,0,.537-1.3V8.758a1.82,1.82,0,0,0-.537-1.3,1.889,1.889,0,0,0-1.352-.549.75.75,0,0,1-.534-1.282,1.9,1.9,0,0,0,0-2.676l-.562-.562a1.819,1.819,0,0,0-1.295-.538h0a1.89,1.89,0,0,0-1.344.568.75.75,0,0,1-1.284-.529A1.9,1.9,0,0,0,18.114,0h-.749a1.9,1.9,0,0,0-1.892,1.892.75.75,0,0,1-1.282.531,1.9,1.9,0,0,0-2.676,0l-.53.53a1.9,1.9,0,0,0,0,2.676.75.75,0,0,1-.531,1.282h-.01A1.89,1.89,0,0,0,9.1,7.46a1.819,1.819,0,0,0-.537,1.3v.794a1.9,1.9,0,0,0,1.892,1.892.75.75,0,0,1,.531,1.282,1.9,1.9,0,0,0,0,2.676l.53.53a1.9,1.9,0,0,0,2.676,0,.75.75,0,0,1,1.282.531,1.894,1.894,0,0,0,1.764,1.887v2.054H6.358a1.218,1.218,0,0,0-1.217,1.217V24.2a4.87,4.87,0,1,0,.994,0V21.622a.223.223,0,0,1,.223-.223H17.236v2.8a4.87,4.87,0,1,0,.994,0V21.4H29.12a.223.223,0,0,1,.223.223V24.2a4.87,4.87,0,1,0,5.222,6.029.5.5,0,0,0-.362-.6ZM16.466,16.463a1.744,1.744,0,0,0-2.979-1.234.9.9,0,0,1-1.271,0l-.53-.53a.9.9,0,0,1,0-1.27,1.745,1.745,0,0,0-1.234-2.979.9.9,0,0,1-.9-.9V8.758A.832.832,0,0,1,9.8,8.164a.9.9,0,0,1,.643-.259h.01a1.745,1.745,0,0,0,1.234-2.979.9.9,0,0,1,0-1.27l.53-.53a.9.9,0,0,1,1.271,0,1.745,1.745,0,0,0,2.979-1.234.9.9,0,0,1,.9-.9h.749a.9.9,0,0,1,.9.9A1.745,1.745,0,0,0,22,3.121a.9.9,0,0,1,.641-.274h0a.832.832,0,0,1,.592.247l.562.562a.9.9,0,0,1,0,1.27A1.744,1.744,0,0,0,25.025,7.9h.01a.9.9,0,0,1,.643.259.832.832,0,0,1,.245.594V9.6a.832.832,0,0,1-.245.594.9.9,0,0,1-.643.259h-.01a1.744,1.744,0,0,0-1.234,2.979.9.9,0,0,1,0,1.271l-.53.53a.9.9,0,0,1-1.271,0,1.745,1.745,0,0,0-2.979,1.234.9.9,0,0,1-.9.9h-.749a.9.9,0,0,1-.9-.9ZM3.484,32.263A2.316,2.316,0,0,1,4.57,30.146a1.879,1.879,0,0,0,2.138,0A2.263,2.263,0,0,1,7.793,32.06v.2a3.867,3.867,0,0,1-4.309,0Zm2.154-2.777a.978.978,0,1,1,.929-.977.955.955,0,0,1-.929.977Zm3.876-.443a3.855,3.855,0,0,1-.8,2.356,3.243,3.243,0,0,0-1.352-2.016,2,2,0,0,0,.2-.874,1.923,1.923,0,1,0-3.845,0,2,2,0,0,0,.2.874A3.243,3.243,0,0,0,2.564,31.4a3.875,3.875,0,1,1,6.95-2.356Zm6.064,3.22v-.2a2.263,2.263,0,0,1,1.085-1.914,1.879,1.879,0,0,0,2.138,0,2.263,2.263,0,0,1,1.085,1.914v.2a3.867,3.867,0,0,1-4.309,0Zm2.154-2.777a.978.978,0,1,1,.929-.977A.955.955,0,0,1,17.733,29.486Zm3.876-.443a3.855,3.855,0,0,1-.8,2.356,3.243,3.243,0,0,0-1.352-2.016,2,2,0,0,0,.2-.874,1.923,1.923,0,1,0-3.845,0,2,2,0,0,0,.2.874A3.243,3.243,0,0,0,14.659,31.4a3.875,3.875,0,1,1,6.95-2.356Zm8.231-1.51a.978.978,0,1,1-.929.977A.955.955,0,0,1,29.84,27.532Zm-2.154,4.731v-.2a2.263,2.263,0,0,1,1.085-1.914,1.879,1.879,0,0,0,2.138,0,2.264,2.264,0,0,1,1.085,1.914v.207a3.877,3.877,0,0,1-4.309,0Z" transform="translate(-0.769 0)"/>
  <path id="Path_52" data-name="Path 52" class="cls-1" d="M202.053,84.806a4.1,4.1,0,1,0-4.148-5.427.5.5,0,1,0,.94.324,3.11,3.11,0,0,1,6.046,1.211,3.11,3.11,0,0,1-6.051.792.5.5,0,1,0-.942.318A4.114,4.114,0,0,0,202.053,84.806Z" transform="translate(-184.817 -71.533)"/>
</svg>
