<svg xmlns="http://www.w3.org/2000/svg" width="19.699" height="19.53" viewBox="0 0 19.699 19.53">
  <g id="phone-call_1_" data-name="phone-call (1)" transform="matrix(0.978, 0.208, -0.208, 0.978, 3.088, 3.188)">
    <g id="Group_148" data-name="Group 148" transform="translate(3.056 -3.909) rotate(17)">
      <path id="Path_117" data-name="Path 117" d="M14.8,10.43,12.752,8.447a1.381,1.381,0,0,0-2.268.5,1.4,1.4,0,0,1-1.609.85,6.22,6.22,0,0,1-3.8-3.683A1.277,1.277,0,0,1,5.95,4.551a1.3,1.3,0,0,0,.512-2.2L4.414.372a1.5,1.5,0,0,0-1.975,0L1.049,1.718c-1.39,1.417.146,5.171,3.584,8.5s7.315,4.887,8.778,3.471l1.39-1.346A1.382,1.382,0,0,0,14.8,10.43Z" transform="translate(-0.539 0)" fill="#5a5a5a"/>
    </g>
  </g>
</svg>
