<svg xmlns="http://www.w3.org/2000/svg" width="63.903" height="63.902" viewBox="0 0 63.903 63.902"><path d="M63.9,51.492A9.453,9.453,0,0,0,61,45c-3.486-3.362-6.407-5.3-9.192-6.107-3.837-1.109-7.392-.1-10.564,3l-.014.014-3.375,3.35a50.575,50.575,0,0,1-10.641-8.23l-.328-.328a50.581,50.581,0,0,1-8.23-10.64L22,22.677l.014-.014c3.1-3.172,4.106-6.726,3-10.564-.8-2.785-2.745-5.706-6.107-9.192A9.5,9.5,0,0,0,5.725,2.432L5.653,2.5q-.05.045-.1.092C1.891,6.253-.03,11.382,0,17.423c.051,10.262,5.691,22,15.087,31.393a60.841,60.841,0,0,0,5.985,5.211,2.5,2.5,0,0,0,3.038-3.962,55.894,55.894,0,0,1-5.492-4.779C10.131,36.8,5.038,26.375,4.993,17.4,4.97,12.746,6.369,8.863,9.041,6.164l.019-.017a4.49,4.49,0,0,1,6.254.226c6.463,6.7,5.995,9.866,3.139,12.794l-4.627,4.662a2.5,2.5,0,0,0-.509,2.774A50.439,50.439,0,0,0,23.353,40.223l.329.328A50.432,50.432,0,0,0,37.3,50.587a2.5,2.5,0,0,0,2.774-.509l4.662-4.627c2.929-2.856,6.093-3.323,12.794,3.139a4.49,4.49,0,0,1,.226,6.254l-.018.02c-2.677,2.65-6.519,4.048-11.121,4.048h-.114A32.368,32.368,0,0,1,34.188,56a2.5,2.5,0,0,0-1.977,4.584A36.825,36.825,0,0,0,46.481,63.9h.14c5.98,0,11.059-1.919,14.695-5.555.032-.032.062-.064.092-.1l.065-.072A9.452,9.452,0,0,0,63.9,51.492Z" transform="translate(0 -0.002)" fill="#474747"/></svg>