<svg xmlns="http://www.w3.org/2000/svg" width="35.094" height="33.819" viewBox="0 0 35.094 33.819">
  <defs>
    <style>
      .cls-1 {
        fill: #3a3a3a;
      }

      .cls-2 {
        fill: #484848;
      }
    </style>
  </defs>
  <g id="woodworking" transform="translate(4)">
    <path id="Shape" class="cls-1" d="M.449,26.954c6.7,6.7,6.056,6.088,6.112,6.113l1.305,1.3a1.522,1.522,0,0,0,2.15,0l6.64-6.64c.157.417-.209,0,6.8,6.328a3.525,3.525,0,0,0,4.626-.455l5-5.545a3,3,0,0,0-.405-4.221L26.3,18.086l7.072-7.072a1.522,1.522,0,0,0,0-2.15L25.957,1.446a1.559,1.559,0,0,0-2.15,0L15.837,9.417,7.323,1.312a1.139,1.139,0,0,0-1.606.035L2.005,5.2a1.151,1.151,0,0,0-.312.831l.147,3.282a1.141,1.141,0,0,0,.789,1.025l2.991.923L5.755,14.4a1.124,1.124,0,0,0,.8,1.024l2.5.778L.449,24.8a1.522,1.522,0,0,0,0,2.15ZM9.22,33.575a.405.405,0,0,1-.556,0l-.931-.931,3.953-4.2a.564.564,0,1,0-.822-.772L6.935,31.846,5.353,30.265l1.811-1.811a.564.564,0,0,0-.8-.8L4.556,29.468,2.95,27.861a6.017,6.017,0,0,1,5.2-1.553,7.138,7.138,0,0,0,5.565-1.338,1.141,1.141,0,0,0,.681.616l2.058.64c.017.161.58-.463-7.232,7.349ZM32.248,27.3l-5,5.545a2.4,2.4,0,0,1-3.033.374l-6.468-5.837c-.06-.054-.024.091-.261-2.137l6.743-7.48c.068,0-.439-.436,7.7,6.907A1.886,1.886,0,0,1,32.248,27.3Zm.447-17.365c0,.234.546-.382-7.227,7.391-.435-.395-.684-.687-1.229-.689a1.147,1.147,0,0,0-.62.184l-1.244-1.184.918-.918a.565.565,0,1,0-.8-.8l-.936.94-2.029-1.935a6.012,6.012,0,0,1,5.06-1.431,7.139,7.139,0,0,0,6.347-2.014l.728-.74c1.016,1.016,1.032.979,1.032,1.193Zm-8.09-7.7a.405.405,0,0,1,.556,0l.919.919L24.485,4.756a.564.564,0,1,0,.8.8l1.594-1.594,1.595,1.594L26.877,7.147a.564.564,0,0,0,.8.8L29.268,6.35l1.6,1.6-.733.746a6.011,6.011,0,0,1-5.346,1.695,7.135,7.135,0,0,0-6.076,1.763l-2.054-1.956ZM6.749,11.214a1.127,1.127,0,0,0-.8-1.027L2.964,9.263,2.82,5.983,6.546,2.126l16.29,15.506c-6.5,7.206-6.347,6.868-6.453,7.389l-1.653-.512c-.027-.606-.113-2.456-.141-3.132a1.122,1.122,0,0,0-.8-1.025l-2.987-.93c-.144-3.2-.083-3.371-.373-3.749a1.244,1.244,0,0,0-.559-.405l-2.991-.923ZM1.246,25.6l8.335-8.335a11.053,11.053,0,0,0,.16,2.507L6.367,23.147a.564.564,0,1,0,.8.8l3.412-3.412,2.886.9.1,2.187A6,6,0,0,1,8.347,25.2a7.142,7.142,0,0,0-6.194,1.869l-.907-.908a.4.4,0,0,1,0-.555Z" transform="translate(-4.004 -0.997)"/>
    <path id="Shape-2" data-name="Shape" class="cls-2" d="M37.65,12.757a.564.564,0,0,0,.8,0l1.595-1.594a.564.564,0,0,0-.8-.8L37.65,11.96A.564.564,0,0,0,37.65,12.757Z" transform="translate(-16.358 -5.013)"/>
    <path id="Shape-3" data-name="Shape" class="cls-2" d="M37.738,45.417,41.151,48.5a.564.564,0,0,0,.8-.041l5.389-5.972a.564.564,0,0,0-.041-.8l-3.412-3.079a.564.564,0,0,0-.8.041L37.7,44.619a.564.564,0,0,0,.041.8Zm5.806-5.594,2.577,2.325-4.633,5.135-2.575-2.324Z" transform="translate(-16.387 -17.344)"/>
    <path id="Shape-4" data-name="Shape" class="cls-2" d="M11.654,6.5a.564.564,0,0,0-.777.816c.883.841.931.948,1.221.948a.564.564,0,0,0,.389-.972Z" transform="translate(-4.676 -3.336)"/>
    <path id="Shape-5" data-name="Shape" class="cls-2" d="M20.692,16.451a.564.564,0,0,0,.389-.972l-4.994-4.755a.564.564,0,0,0-.777.816L20.3,16.3a.564.564,0,0,0,.388.156Z" transform="translate(-6.612 -5.179)"/>
  </g>
</svg>
