<?xml version="1.0"?>
<svg xmlns="http://www.w3.org/2000/svg" id="Capa_1" enable-background="new 0 0 450.823 450.823" height="512px" viewBox="0 0 450.823 450.823" width="512px"><g><path d="m362.168 215.45c5.502 5.502 5.502 14.422 0 19.924s-14.422 5.502-19.924 0-5.502-14.422 0-19.924 14.422-5.502 19.924 0" data-original="#000000" class="active-path" data-old_color="#000000" fill="#2B2B2B"/><path d="m408.559 0h-253.588c-7.787 0-14.088 6.301-14.088 14.088v143.304l28.176 28.176v-157.392h225.411v394.47h-225.411v-157.391l-28.176 28.176v143.304c0 7.787 6.301 14.088 14.088 14.088h253.588c7.787 0 14.088-6.301 14.088-14.088v-422.647c0-7.787-6.301-14.088-14.088-14.088z" data-original="#000000" class="active-path" data-old_color="#000000" fill="#2B2B2B"/><path d="m169.059 225.412-56.353-56.353v42.265h-84.53v28.176h84.529v42.265z" data-original="#000000" class="active-path" data-old_color="#000000" fill="#2B2B2B"/></g> </svg>
