<svg xmlns="http://www.w3.org/2000/svg" width="26.244" height="34.999" viewBox="0 0 26.244 34.999">
  <g id="file" transform="translate(-64.04)">
    <g id="Group_123" data-name="Group 123" transform="translate(64.04)">
      <g id="Group_122" data-name="Group 122">
        <path id="Path_100" data-name="Path 100" d="M90.282,7.084a.818.818,0,0,0-.238-.571L83.771.24h0A.816.816,0,0,0,83.191,0H65.765A1.727,1.727,0,0,0,64.04,1.725V33.274A1.727,1.727,0,0,0,65.765,35H88.559a1.727,1.727,0,0,0,1.725-1.725V7.092A.06.06,0,0,0,90.282,7.084ZM84.011,2.8l3.475,3.475H84.1a.086.086,0,0,1-.086-.086V2.8Zm4.634,30.476a.086.086,0,0,1-.086.086H65.765a.086.086,0,0,1-.086-.086V1.725a.086.086,0,0,1,.086-.086H82.372V6.187A1.727,1.727,0,0,0,84.1,7.912h4.548V33.274Z" transform="translate(-64.04)" fill="#313131"/>
      </g>
    </g>
    <g id="Group_125" data-name="Group 125" transform="translate(69.091 11.212)">
      <g id="Group_124" data-name="Group 124">
        <path id="Path_101" data-name="Path 101" d="M153.247,164.014h-14.5a.819.819,0,1,0,0,1.639h14.5a.819.819,0,0,0,0-1.639Z" transform="translate(-137.924 -164.014)" fill="#313131"/>
      </g>
    </g>
    <g id="Group_127" data-name="Group 127" transform="translate(69.091 16.157)">
      <g id="Group_126" data-name="Group 126">
        <path id="Path_102" data-name="Path 102" d="M153.247,236.353h-14.5a.819.819,0,1,0,0,1.639h14.5a.819.819,0,0,0,0-1.639Z" transform="translate(-137.924 -236.353)" fill="#313131"/>
      </g>
    </g>
    <g id="Group_129" data-name="Group 129" transform="translate(69.091 21.101)">
      <g id="Group_128" data-name="Group 128">
        <path id="Path_103" data-name="Path 103" d="M153.247,308.691h-14.5a.819.819,0,1,0,0,1.639h14.5a.819.819,0,0,0,0-1.639Z" transform="translate(-137.924 -308.691)" fill="#313131"/>
      </g>
    </g>
    <g id="Group_131" data-name="Group 131" transform="translate(69.091 26.046)">
      <g id="Group_130" data-name="Group 130">
        <path id="Path_104" data-name="Path 104" d="M146,381.031h-7.252a.819.819,0,1,0,0,1.639H146a.819.819,0,1,0,0-1.639Z" transform="translate(-137.924 -381.031)" fill="#313131"/>
      </g>
    </g>
  </g>
</svg>
