<?xml version="1.0"?>
<svg xmlns="http://www.w3.org/2000/svg" xmlns:xlink="http://www.w3.org/1999/xlink" version="1.1" id="Capa_1" x="0px" y="0px" viewBox="0 0 333 333" style="enable-background:new 0 0 333 333;" xml:space="preserve" width="512px" height="512px"><g><g>
	<g>
		<path d="M323,31.5H10c-5.5,0-10,4.5-10,10s4.5,10,10,10h313c5.5,0,10-4.5,10-10S328.5,31.5,323,31.5z" data-original="#000000" class="active-path" data-old_color="#000000" fill="#313131"/>
	</g>
</g><g>
	<g>
		<path d="M230,114.5H10c-5.5,0-10,4.5-10,10s4.5,10,10,10h220c5.5,0,10-4.5,10-10S235.5,114.5,230,114.5z" data-original="#000000" class="active-path" data-old_color="#000000" fill="#313131"/>
	</g>
</g><g>
	<g>
		<path d="M323,198.5H10c-5.5,0-10,4.5-10,10s4.5,10,10,10h313c5.5,0,10-4.5,10-10S328.5,198.5,323,198.5z" data-original="#000000" class="active-path" data-old_color="#000000" fill="#313131"/>
	</g>
</g><g>
	<g>
		<path d="M151,281.5H10c-5.5,0-10,4.5-10,10s4.5,10,10,10h141c5.5,0,10-4.5,10-10S156.5,281.5,151,281.5z" data-original="#000000" class="active-path" data-old_color="#000000" fill="#313131"/>
	</g>
</g></g> </svg>
