<?xml version="1.0"?>
<svg xmlns="http://www.w3.org/2000/svg" xmlns:xlink="http://www.w3.org/1999/xlink" version="1.1" id="Capa_1" x="0px" y="0px" viewBox="0 0 480.018 480.018" style="enable-background:new 0 0 480.018 480.018;" xml:space="preserve" width="512px" height="512px"><g><g>
	<g>
		<path d="M472.009,32h-96V8c0-4.418-3.582-8-8-8s-8,3.582-8,8v24h-112V8c0-4.418-3.582-8-8-8s-8,3.582-8,8v24h-112V8    c0-4.418-3.582-8-8-8s-8,3.582-8,8v24h-96c-4.418,0-8,3.582-8,8v368c0,4.418,3.582,8,8,8h112.368    c44.075,66.071,133.367,83.902,199.438,39.826c15.771-10.521,29.306-24.056,39.826-39.826h112.368c4.418,0,8-3.582,8-8V40    C480.009,35.582,476.427,32,472.009,32z M367.697,345c-0.264,3.8-0.76,7.56-1.352,11.296    C356.412,418.359,302.862,464.012,240.009,464c-70.692,0-128-57.308-128-128s57.308-128,128-128s128,57.308,128,128    C368.009,339.019,367.905,342.019,367.697,345z M464.009,400h-94.984c0.592-1.192,1.112-2.4,1.672-3.624    c0.416-0.896,0.848-1.784,1.24-2.688c1.067-2.421,2.059-4.872,2.976-7.352c0.16-0.416,0.336-0.8,0.488-1.24    c1.067-2.912,2.024-5.859,2.872-8.84c0.232-0.8,0.424-1.6,0.64-2.4c0.592-2.184,1.152-4.368,1.6-6.584    c0.24-1.056,0.448-2.128,0.656-3.2c0.4-2.016,0.757-4.04,1.072-6.072c0.168-1.096,0.328-2.2,0.472-3.304    c0.28-2.136,0.496-4.272,0.68-6.4c0.08-0.968,0.184-1.936,0.248-2.912c0.2-3.112,0.328-6.224,0.328-9.36    c0-79.529-64.471-144-144-144s-144,64.471-144,144c0,3.136,0.128,6.248,0.328,9.36c0.064,0.976,0.168,1.944,0.248,2.92    c0.184,2.144,0.4,4.28,0.672,6.4c0.144,1.112,0.312,2.216,0.488,3.328c0.315,2.027,0.669,4.043,1.064,6.048    c0.208,1.072,0.416,2.144,0.656,3.2c0.48,2.184,1.032,4.352,1.6,6.512c0.224,0.8,0.416,1.672,0.656,2.496    c0.864,2.96,1.808,5.888,2.856,8.8c0.176,0.48,0.384,0.944,0.56,1.416c0.901,2.416,1.867,4.816,2.896,7.2    c0.416,0.944,0.856,1.864,1.288,2.792c0.552,1.184,1.064,2.4,1.648,3.56h-94.92V128h448V400z M464.009,112h-448V48h88v24h-16    c-4.418,0-8,3.582-8,8s3.582,8,8,8h48c4.418,0,8-3.582,8-8s-3.582-8-8-8h-16V48h112v24h-16c-4.418,0-8,3.582-8,8s3.582,8,8,8h48    c4.418,0,8-3.582,8-8s-3.582-8-8-8h-16V48h112v24h-16c-4.418,0-8,3.582-8,8s3.582,8,8,8h48c4.418,0,8-3.582,8-8s-3.582-8-8-8h-16    V48h88V112z" data-original="#000000" class="active-path" data-old_color="#000000" fill="#313131"/>
	</g>
</g><g>
	<g>
		<path d="M292.721,379.744L248.009,332.8V240c0-4.418-3.582-8-8-8s-8,3.582-8,8v96c0.002,2.053,0.792,4.026,2.208,5.512    l46.912,49.264c3.046,3.201,8.111,3.326,11.312,0.28C295.642,388.01,295.767,382.945,292.721,379.744z" data-original="#000000" class="active-path" data-old_color="#000000" fill="#313131"/>
	</g>
</g></g> </svg>
