<svg id="Layer_5" enable-background="new 0 0 64 64" height="512" viewBox="0 0 64 64" width="512" xmlns="http://www.w3.org/2000/svg"><g><path d="m60.519 31.105c-1.325-1.325-3.079-2.183-4.938-2.415l-2.829-.354c-.999-.125-1.752-.978-1.752-1.984v-.434c1.952-1.133 3.386-3.062 3.843-5.344l1.611-1.164c1.594-1.196 2.546-3.1 2.546-5.093 0-2.408-1.194-4.644-3.195-5.982-1.433-3.252-4.614-5.335-8.19-5.335h-1.229c-3.576 0-6.757 2.083-8.19 5.335-2.002 1.338-3.196 3.574-3.196 5.982 0 1.993.952 3.897 2.561 5.104l1.596 1.153c.457 2.282 1.891 4.211 3.843 5.344v.328c0 .99-.725 1.839-1.687 1.974-1.304.184-2.525.464-3.63.832-2.303.768-4.541 2.569-5.658 3.56l-8.025-8.026-2.442-2.442c-.738-.738-1.718-1.144-2.762-1.144-1.429 0-2.719.762-3.41 2h-.386c-1.654 0-3 1.346-3 3v2c0 1.654 1.346 3 3 3h4.586l7.957 7.957c1.317 1.317 3.069 2.043 4.933 2.043 1.164 0 2.319-.294 3.34-.852l1.184-.645v23.497h20v-7.184c.314.112.648.184 1 .184h2c1.654 0 3-1.346 3-3v-15.906c0-2.262-.881-4.389-2.481-5.989zm-9.851-1.52c.237.171.494.313.767.43l-1.027 5.645-2.155-2.694zm-13.668-15.268c0-1.742.865-3.358 2.314-4.325l.499-.333.116-.288c1.062-2.655 3.596-4.371 6.456-4.371h1.229c2.86 0 5.395 1.716 6.457 4.372l.116.288.499.333c1.449.965 2.314 2.582 2.314 4.324 0 1.367-.653 2.673-1.732 3.482l-.268.194v-3.714l-1-.333c-1.609-.537-3.093-1.454-4.292-2.653l-.613-.613-.695.52c-2.408 1.805-5.391 2.8-8.4 2.8h-1v3.993l-.253-.183c-1.094-.82-1.747-2.126-1.747-3.493zm4 4.683v-3.032c2.815-.18 5.568-1.112 7.913-2.681 1.198 1.049 2.592 1.878 4.087 2.428v3.285c0 3.309-2.691 6-6 6s-6-2.691-6-6zm6 8c.704 0 1.384-.101 2.035-.272.042.44.151.858.325 1.247l-2.36 3.304-2.391-3.347c.177-.377.295-.781.347-1.207.654.174 1.336.275 2.044.275zm-1.253 5.966-2.156 2.695-1.044-5.739c.261-.11.506-.245.735-.406zm-31.747-4.966v-2c0-.551.449-1 1-1h1.618l.473-.946c.325-.65.978-1.054 1.705-1.054.501 0 .993.204 1.348.558l2.442 2.442-3 3h-4.586c-.551 0-1-.449-1-1zm20.859 10.392c-.729.398-1.553.608-2.383.608-1.33 0-2.58-.518-3.52-1.458l-7.542-7.542 2.586-2.586 7.178 7.178.927 1.855 1.789-.895-.666-1.333c.949-.853 3.048-2.592 5.088-3.271.703-.234 1.478-.414 2.282-.567l1.811 9.958 4.591-5.738 4.591 5.739 1.801-9.908 1.941.242c1.42.178 2.76.833 3.772 1.845 1.222 1.222 1.895 2.847 1.895 4.575v8.906h-4v-8.586c0-.635.258-1.258.707-1.707l-1.414-1.414c-.834.833-1.293 1.942-1.293 3.121v9.172l-1.14 1.14c-.359.359-.601.799-.736 1.274h-14.124v-11.586c0-1.179-.459-2.288-1.293-3.121l-1.414 1.414c.406.406.645.956.689 1.528zm20.141 22.608h-7v-2.838c0-1.46.931-2.751 2.316-3.213l-.633-1.897c-1.112.371-2.037 1.078-2.684 1.986-.646-.907-1.572-1.615-2.684-1.986l-.633 1.897c1.387.462 2.318 1.753 2.318 3.213v2.838h-7v-10h14.253c.271.61.747 1.118 1.371 1.43l.376.188v.382zm5-7h-2c-.551 0-1-.449-1-1v-1-.618l-1.482-.741c-.319-.16-.518-.481-.518-.838 0-.25.098-.486.274-.663l1.14-1.14h4.586v5c0 .551-.449 1-1 1z"/><path d="m20.99 50.372-.688-.138c.45-1.014.698-2.107.698-3.234v-6c0-4.411-3.589-8-8-8s-8 3.589-8 8v6c0 1.126.248 2.219.698 3.233l-.688.139c-2.323.469-4.01 2.53-4.01 4.901v7.727h24v-7.727c0-2.371-1.687-4.432-4.01-4.901zm-3.54-.712c-.502-.143-.914-.479-1.17-.917.548-.481.999-1.067 1.296-1.743h.424c.352 0 .686-.072 1-.184v.184c0 .997-.257 1.959-.723 2.826zm-1.45-4.66c0 1.654-1.346 3-3 3s-3-1.346-3-3v-3.054c1.037-.111 2.055-.393 3-.833.945.439 1.963.722 3 .833zm-1.22 9h-3.561l-.711-3.148c.384-.309.704-.691.952-1.12.489.16 1 .268 1.54.268.541 0 1.052-.108 1.541-.268.246.423.566.8.953 1.11zm-.451 2-1.129 5h-.4l-1.129-5zm3.671-13c.551 0 1 .449 1 1s-.449 1-1 1zm-5-8c3.309 0 6 2.691 6 6v.184c-.314-.112-.648-.184-1-.184v-1h-1c-1.154 0-2.31-.273-3.342-.789l-.658-.329-.658.329c-1.032.516-2.188.789-3.342.789h-1v1c-.352 0-.686.072-1 .184v-.184c0-3.309 2.691-6 6-6zm-5 10c-.551 0-1-.449-1-1s.449-1 1-1zm-1 2v-.184c.314.112.648.184 1 .184h.424c.297.677.749 1.263 1.297 1.744-.252.436-.649.768-1.095.897l-.904.183c-.466-.867-.722-1.828-.722-2.824zm-4 8.273c0-1.422 1.012-2.659 2.406-2.941l3.238-.657 2.105 9.325h-7.749zm20 5.727h-7.749l2.104-9.322 3.239.654c1.394.282 2.406 1.519 2.406 2.941z"/><path d="m7 5h14v2h-14z"/><path d="m7 9h10v2h-10z"/><path d="m19 9h2v2h-2z"/><path d="m6.834 15h6.752l3.293 3.293c.456.456 1.062.707 1.707.707 1.331 0 2.414-1.083 2.414-2.414v-1.586h.166c2.114 0 3.834-1.72 3.834-3.834v-6.166c0-2.206-1.794-4-4-4h-14c-2.206 0-4 1.794-4 4v6.166c0 2.114 1.72 3.834 3.834 3.834zm-1.834-10c0-1.103.897-2 2-2h14c1.103 0 2 .897 2 2v6.166c0 1.011-.823 1.834-1.834 1.834h-2.166v3.586c0 .338-.469.531-.707.293l-3.879-3.879h-7.58c-1.011 0-1.834-.823-1.834-1.834z"/></g></svg>