<svg xmlns="http://www.w3.org/2000/svg" width="33.611" height="21.007" viewBox="0 0 33.611 21.007">
  <defs>
    <style>
      .cls-1 {
        fill: #313131;
      }
    </style>
  </defs>
  <g id="dumbbell_1_" data-name="dumbbell (1)" transform="translate(0.001 0)">
    <path id="Path_138" data-name="Path 138" class="cls-1" d="M31.641,7.221h-.656V4.267a2.625,2.625,0,0,0-4.006-2.233A2.629,2.629,0,0,0,24.42,0h0a2.629,2.629,0,0,0-2.626,2.626v4.6H11.816v-4.6a2.626,2.626,0,0,0-5.185-.592A2.625,2.625,0,0,0,2.625,4.267V7.221H1.969A1.972,1.972,0,0,0,0,9.19v2.626a1.972,1.972,0,0,0,1.969,1.969h.656V16.74a2.625,2.625,0,0,0,4.006,2.233A2.629,2.629,0,0,0,9.19,21.007h0a2.629,2.629,0,0,0,2.626-2.626v-4.6h9.977v4.6a2.626,2.626,0,0,0,5.185.592,2.625,2.625,0,0,0,4.006-2.233V13.786h.656a1.972,1.972,0,0,0,1.969-1.969V9.19a1.972,1.972,0,0,0-1.969-1.969ZM2.625,12.473H1.969a.657.657,0,0,1-.656-.656V9.19a.657.657,0,0,1,.656-.656h.656ZM6.564,16.74a1.313,1.313,0,1,1-2.626,0V4.267a1.313,1.313,0,1,1,2.626,0Zm3.94,1.641a1.315,1.315,0,0,1-1.313,1.313h0a1.315,1.315,0,0,1-1.313-1.313V2.626a1.313,1.313,0,0,1,2.627,0ZM21.789,9.847H17.2a.656.656,0,0,0,0,1.313h4.591v1.313H11.813V8.534h9.976Zm3.943,8.534a1.313,1.313,0,0,1-2.627,0V10.537a.386.386,0,0,1,0,.043v-.152a.386.386,0,0,1,0,.043V2.626a1.315,1.315,0,0,1,1.313-1.313h0a1.315,1.315,0,0,1,1.313,1.313Zm3.939-1.641a1.313,1.313,0,1,1-2.626,0V4.267a1.313,1.313,0,0,1,2.626,0ZM32.3,11.816a.657.657,0,0,1-.656.656h-.656V8.534h.656a.657.657,0,0,1,.656.656Zm0,0"/>
    <path id="Path_139" data-name="Path 139" class="cls-1" d="M212.673,151.313a.656.656,0,1,1,0-1.313h0a.656.656,0,0,1,0,1.313Zm0,0" transform="translate(-198.099 -140.153)"/>
  </g>
</svg>
