<svg xmlns="http://www.w3.org/2000/svg" width="39.168" height="36.634" viewBox="0 0 39.168 36.634">
  <g id="ebooks" transform="translate(-2 -5)">
    <path id="Path_307" data-name="Path 307" d="M41.1,36.582l-3.852-8V7.035A2,2,0,0,0,35.293,5H7.875A2,2,0,0,0,5.917,7.035V28.584l-3.848,8a.7.7,0,0,0-.069.3V39.6a2,2,0,0,0,1.958,2.035H39.21A2,2,0,0,0,41.168,39.6V36.885A.7.7,0,0,0,41.1,36.582ZM27.21,36.207l-1.122-2.338a.651.651,0,0,0-.588-.375H17.667a.651.651,0,0,0-.584.375l-1.125,2.338H3.709l3.264-6.784H36.195l3.264,6.784Zm-1.46,0H17.418l.653-1.357H25.1ZM7.222,7.035a.666.666,0,0,1,.653-.678H35.293a.666.666,0,0,1,.653.678V28.066H7.222ZM39.21,40.277H3.958a.666.666,0,0,1-.653-.678V37.564H39.862V39.6A.666.666,0,0,1,39.21,40.277Z" transform="translate(0)"/>
    <path id="Path_308" data-name="Path 308" d="M10,47h1.306v1.357H10Z" transform="translate(-2.778 -13.507)"/>
    <path id="Path_309" data-name="Path 309" d="M14,47h1.306v1.357H14Z" transform="translate(-4.166 -13.507)"/>
    <path id="Path_310" data-name="Path 310" d="M48,47h1.306v1.357H48Z" transform="translate(-15.971 -13.507)"/>
    <path id="Path_311" data-name="Path 311" d="M52,47h1.306v1.357H52Z" transform="translate(-17.36 -13.507)"/>
    <path id="Path_312" data-name="Path 312" d="M15,43h1.306v1.357H15Z" transform="translate(-4.514 -12.22)"/>
    <path id="Path_313" data-name="Path 313" d="M11,43h1.306v1.357H11Z" transform="translate(-3.125 -12.22)"/>
    <path id="Path_314" data-name="Path 314" d="M19,43h1.306v1.357H19Z" transform="translate(-5.902 -12.22)"/>
    <path id="Path_315" data-name="Path 315" d="M23,43h1.306v1.357H23Z" transform="translate(-7.291 -12.22)"/>
    <path id="Path_316" data-name="Path 316" d="M27,43h1.306v1.357H27Z" transform="translate(-8.68 -12.22)"/>
    <path id="Path_317" data-name="Path 317" d="M31,43h1.306v1.357H31Z" transform="translate(-10.069 -12.22)"/>
    <path id="Path_318" data-name="Path 318" d="M35,43h1.306v1.357H35Z" transform="translate(-11.458 -12.22)"/>
    <path id="Path_319" data-name="Path 319" d="M39,43h1.306v1.357H39Z" transform="translate(-12.846 -12.22)"/>
    <path id="Path_320" data-name="Path 320" d="M43,43h1.306v1.357H43Z" transform="translate(-14.235 -12.22)"/>
    <path id="Path_321" data-name="Path 321" d="M47,43h1.306v1.357H47Z" transform="translate(-15.624 -12.22)"/>
    <path id="Path_322" data-name="Path 322" d="M51,43h1.306v1.357H51Z" transform="translate(-17.013 -12.22)"/>
    <path id="Path_323" data-name="Path 323" d="M18,47h2.611v1.357H18Z" transform="translate(-5.555 -13.507)"/>
    <path id="Path_324" data-name="Path 324" d="M42,47h2.611v1.357H42Z" transform="translate(-13.888 -13.507)"/>
    <path id="Path_325" data-name="Path 325" d="M34.364,10.91a1.3,1.3,0,0,0-1.6-.96L28.979,11a1.259,1.259,0,0,0-.313.14,1.28,1.28,0,0,0-1-.5H23.75a1.255,1.255,0,0,0-.653.189,1.255,1.255,0,0,0-.653-.189H18.528a1.255,1.255,0,0,0-.653.189,1.255,1.255,0,0,0-.653-.189H13.306A1.332,1.332,0,0,0,12,12V25.572a1.332,1.332,0,0,0,1.306,1.357h3.917a1.255,1.255,0,0,0,.653-.189,1.255,1.255,0,0,0,.653.189h3.917a1.255,1.255,0,0,0,.653-.189,1.255,1.255,0,0,0,.653.189h3.917a1.332,1.332,0,0,0,1.306-1.357V16.21l2.464,9.559a1.3,1.3,0,0,0,1.6.959l3.786-1.054a1.363,1.363,0,0,0,.923-1.661ZM27.667,12v7.463H23.75V12ZM23.75,20.824h3.917V21.5H23.75Zm-6.528,2.035H13.306V22.18h3.917Zm0-10.855v8.819H13.306V12ZM13.306,25.572V24.216h3.917v1.357Zm5.222,0V12h3.917V25.572Zm5.222,0V22.859h3.917v2.714Zm12.056-3.827L32.02,22.8l-.169-.656,3.786-1.054ZM33.1,11.258l2.2,8.519L31.513,20.83l-2.194-8.516Zm-.4,14.159-.338-1.311,3.786-1.054.338,1.311Z" transform="translate(-3.472 -1.577)"/>
    <ellipse id="Ellipse_9" data-name="Ellipse 9" cx="1" cy="1.5" rx="1" ry="1.5" transform="translate(16 20)"/>
  </g>
</svg>
