<svg id="education" xmlns="http://www.w3.org/2000/svg" width="28.983" height="28.983" viewBox="0 0 28.983 28.983">
  <g id="Group_135" data-name="Group 135" transform="translate(0 0)">
    <g id="Group_134" data-name="Group 134" transform="translate(0 0)">
      <path id="Path_107" data-name="Path 107" d="M28.5,0H.483A.483.483,0,0,0,0,.483H0v9.661H.966V.966H28.017V11.593H11.11v.966H28.5a.483.483,0,0,0,.483-.483h0V.483A.483.483,0,0,0,28.5,0Z" transform="translate(0 0)" fill="#313131"/>
    </g>
  </g>
  <g id="Group_137" data-name="Group 137" transform="translate(15.905 2.474)">
    <g id="Group_136" data-name="Group 136" transform="translate(0 0)">
      <rect id="Rectangle_29" data-name="Rectangle 29" width="9" height="1" transform="translate(0.278 0.326)" fill="#313131"/>
    </g>
  </g>
  <g id="Group_139" data-name="Group 139" transform="translate(17.672 6.125)">
    <g id="Group_138" data-name="Group 138" transform="translate(0 0)">
      <rect id="Rectangle_30" data-name="Rectangle 30" width="9" height="1" transform="translate(-0.49 -0.325)" fill="#313131"/>
    </g>
  </g>
  <g id="Group_141" data-name="Group 141" transform="translate(15.905 8.66)">
    <g id="Group_140" data-name="Group 140" transform="translate(0 0)">
      <rect id="Rectangle_31" data-name="Rectangle 31" width="9" height="1" transform="translate(0.278 0.141)" fill="#313131"/>
    </g>
  </g>
  <g id="Group_143" data-name="Group 143" transform="translate(0 1.932)">
    <g id="Group_142" data-name="Group 142" transform="translate(0)">
      <path id="Path_108" data-name="Path 108" d="M15.419,34.233a1.559,1.559,0,0,0-2.038-.84l-.041.018L9.424,35.441a2.389,2.389,0,0,0,.237-1.026,2.415,2.415,0,1,0-4.335,1.449h-.02a3.315,3.315,0,0,0-3.079,2.144L.937,42.453a1.547,1.547,0,1,0,2.905,1.064l.505-1.608V48.9a2.408,2.408,0,0,0-3.135,3.645A2.225,2.225,0,0,0,0,54.52v4.048a.483.483,0,0,0,.483.483H5.314a.483.483,0,0,0,.483-.483h0V54.52a2.22,2.22,0,0,0-.862-1.749H8.591a2.22,2.22,0,0,0-.862,1.749v4.048a.483.483,0,0,0,.483.483h4.831a.483.483,0,0,0,.483-.483h0V54.52a2.225,2.225,0,0,0-1.213-1.974,2.413,2.413,0,0,0-2.168-4.091V38.573l4.434-2.3A1.559,1.559,0,0,0,15.419,34.233ZM7.246,32.966A1.449,1.449,0,1,1,5.8,34.415,1.449,1.449,0,0,1,7.246,32.966ZM2.9,49.372a1.449,1.449,0,1,1-1.449,1.449A1.449,1.449,0,0,1,2.9,49.372ZM4.83,58.085H.966V54.52a1.267,1.267,0,0,1,1.266-1.266H3.565A1.267,1.267,0,0,1,4.83,54.52Zm7.729-3.565v3.565H8.695V54.52a1.267,1.267,0,0,1,1.266-1.266h1.333A1.267,1.267,0,0,1,12.559,54.52Zm-1.932-5.148a1.449,1.449,0,1,1-1.449,1.449A1.451,1.451,0,0,1,10.627,49.372Zm3.908-14.333a.621.621,0,0,1-.365.358L9.439,37.851a.483.483,0,0,0-.261.429V48.9a2.383,2.383,0,0,0-.752,2.9h-.7V43.593H6.763V51.8H5.1a2.393,2.393,0,0,0,.213-.966h0V38.763a.483.483,0,0,0-.944-.145l-1.442,4.59a.581.581,0,0,1-.806.321.593.593,0,0,1-.27-.767l1.289-4.445A2.334,2.334,0,0,1,5.306,36.83h3.42a.481.481,0,0,0,.222-.054l4.8-2.492a.6.6,0,0,1,.76.282A.588.588,0,0,1,14.535,35.038Z" transform="translate(0 -32)" fill="#313131"/>
    </g>
  </g>
  <g id="Group_145" data-name="Group 145" transform="translate(15.458 18.333)">
    <g id="Group_144" data-name="Group 144">
      <path id="Path_109" data-name="Path 109" d="M260.584,307.764a2.415,2.415,0,1,0-3.415-.044l.045.044A2.226,2.226,0,0,0,256,309.738v4.048a.483.483,0,0,0,.483.483h4.831a.483.483,0,0,0,.483-.483h0v-4.048A2.225,2.225,0,0,0,260.584,307.764ZM258.9,304.59a1.449,1.449,0,1,1-1.449,1.449A1.449,1.449,0,0,1,258.9,304.59Zm1.932,8.713h-3.864v-3.565a1.267,1.267,0,0,1,1.266-1.266h1.333a1.267,1.267,0,0,1,1.266,1.266Z" transform="translate(-256 -303.618)" fill="#313131"/>
    </g>
  </g>
  <g id="Group_147" data-name="Group 147" transform="translate(23.186 18.333)">
    <g id="Group_146" data-name="Group 146">
      <path id="Path_110" data-name="Path 110" d="M388.584,307.764a2.415,2.415,0,1,0-3.415-.044l.045.044A2.226,2.226,0,0,0,384,309.738v4.048a.483.483,0,0,0,.483.483h4.831a.483.483,0,0,0,.483-.483h0v-4.048A2.225,2.225,0,0,0,388.584,307.764ZM386.9,304.59a1.449,1.449,0,1,1-1.449,1.449A1.449,1.449,0,0,1,386.9,304.59Zm1.932,8.713h-3.864v-3.565a1.267,1.267,0,0,1,1.266-1.266h1.333a1.267,1.267,0,0,1,1.266,1.266Z" transform="translate(-384 -303.618)" fill="#313131"/>
    </g>
  </g>
</svg>
