<svg id="files" xmlns="http://www.w3.org/2000/svg" width="30.167" height="31.727" viewBox="0 0 30.167 31.727">
  <defs>
    <style>
      .cls-1 {
        fill: #313131;
      }
    </style>
  </defs>
  <path id="Path_177" data-name="Path 177" class="cls-1" d="M185.4,0h-9.254a.471.471,0,0,0-.476.465v30.8a.471.471,0,0,0,.476.465H185.4a.471.471,0,0,0,.476-.465V.465A.471.471,0,0,0,185.4,0Zm-.476,30.8h-8.3V.93h8.3Z" transform="translate(-165.687)"/>
  <path id="Path_178" data-name="Path 178" class="cls-1" d="M206.143,46.327h5.442a.476.476,0,0,0,.476-.476V30.476a.476.476,0,0,0-.476-.476h-5.442a.476.476,0,0,0-.476.476V45.85A.476.476,0,0,0,206.143,46.327Zm.476-.953V34.765h4.489V45.374Zm4.489-14.421v2.859h-4.489V30.953Z" transform="translate(-193.78 -28.094)"/>
  <path id="Path_179" data-name="Path 179" class="cls-1" d="M234.929,409.167a1.429,1.429,0,1,0,1.429,1.429A1.431,1.431,0,0,0,234.929,409.167Zm0,1.906a.476.476,0,1,1,.476-.476A.477.477,0,0,1,234.929,411.073Z" transform="translate(-219.846 -383.972)"/>
  <path id="Path_180" data-name="Path 180" class="cls-1" d="M9.73,0H.476A.471.471,0,0,0,0,.465v30.8a.471.471,0,0,0,.476.465H9.73a.471.471,0,0,0,.476-.465V.465A.471.471,0,0,0,9.73,0ZM9.254,30.8H.953V.93h8.3Z"/>
  <path id="Path_181" data-name="Path 181" class="cls-1" d="M30.476,46.327h5.442a.476.476,0,0,0,.476-.476V30.476A.476.476,0,0,0,35.919,30H30.476a.476.476,0,0,0-.476.476v8.64a.476.476,0,0,0,.953,0V34.765h4.489V45.374H30.953V41.022a.476.476,0,0,0-.953,0V45.85A.476.476,0,0,0,30.476,46.327Zm.476-12.515V30.953h4.489v2.859Z" transform="translate(-28.094 -28.094)"/>
  <path id="Path_182" data-name="Path 182" class="cls-1" d="M59.262,409.167a1.429,1.429,0,1,0,1.429,1.429A1.431,1.431,0,0,0,59.262,409.167Zm0,1.906a.476.476,0,1,1,.476-.476A.477.477,0,0,1,59.262,411.073Z" transform="translate(-54.159 -383.972)"/>
  <path id="Path_183" data-name="Path 183" class="cls-1" d="M361.063,0H351.81a.471.471,0,0,0-.477.465v30.8a.471.471,0,0,0,.477.465h9.254a.471.471,0,0,0,.476-.465V.465A.471.471,0,0,0,361.063,0Zm-.476,30.8h-8.3V.93h8.3Z" transform="translate(-331.373)"/>
  <path id="Path_184" data-name="Path 184" class="cls-1" d="M381.81,46.327h5.442a.476.476,0,0,0,.476-.476V30.476a.476.476,0,0,0-.476-.476H381.81a.476.476,0,0,0-.477.476V45.85A.476.476,0,0,0,381.81,46.327Zm.477-.953V34.765h4.489V45.374Zm4.489-14.421v2.859h-4.489V30.953Z" transform="translate(-359.467 -28.094)"/>
  <path id="Path_185" data-name="Path 185" class="cls-1" d="M410.6,409.167a1.429,1.429,0,1,0,1.429,1.429A1.431,1.431,0,0,0,410.6,409.167Zm0,1.906a.476.476,0,1,1,.476-.476A.477.477,0,0,1,410.6,411.073Z" transform="translate(-385.533 -383.972)"/>
</svg>
