<svg xmlns="http://www.w3.org/2000/svg" width="34.997" height="30.674" viewBox="0 0 34.997 30.674">
  <g id="gallery" transform="translate(0 -26.576)">
    <g id="Group_133" data-name="Group 133" transform="translate(0 26.576)">
      <g id="Group_132" data-name="Group 132">
        <path id="Path_105" data-name="Path 105" d="M177.559,159.668a3.57,3.57,0,1,0,3.57,3.57A3.57,3.57,0,0,0,177.559,159.668Zm0,5.44a1.87,1.87,0,0,1,0-3.74h0a1.87,1.87,0,1,1,0,3.74Z" transform="translate(-159.836 -148.842)" fill="#313131"/>
        <path id="Path_106" data-name="Path 106" d="M31.96,29.242l-23.2-2.635a3.187,3.187,0,0,0-2.507.723,3.23,3.23,0,0,0-1.232,2.21l-.425,3.485H3.273A3.415,3.415,0,0,0,0,36.552V53.934a3.23,3.23,0,0,0,3.144,3.314H26.605a3.489,3.489,0,0,0,3.57-3.315v-.68a4.25,4.25,0,0,0,1.615-.68,3.528,3.528,0,0,0,1.232-2.295l1.955-17.255A3.442,3.442,0,0,0,31.96,29.242ZM28.475,53.934a1.789,1.789,0,0,1-1.87,1.615H3.273A1.53,1.53,0,0,1,1.7,54.065q0-.065,0-.131V50.789l6.587-4.845a2.04,2.04,0,0,1,2.635.127l4.632,4.08a4,4,0,0,0,2.507.935,3.867,3.867,0,0,0,2.04-.552l8.372-4.845v8.245Zm0-10.242-9.265,5.4a2.167,2.167,0,0,1-2.507-.212l-4.675-4.122a3.783,3.783,0,0,0-4.717-.17L1.7,48.664V36.552a1.716,1.716,0,0,1,1.572-1.827H26.605a1.955,1.955,0,0,1,1.87,1.827v7.14Zm4.8-10.9,0,.017-2,17.255a1.445,1.445,0,0,1-.553,1.147c-.17.17-.552.255-.552.34v-15a3.655,3.655,0,0,0-3.57-3.527H6.291l.382-3.315a1.955,1.955,0,0,1,.638-1.1,1.955,1.955,0,0,1,1.275-.34l23.162,2.677A1.7,1.7,0,0,1,33.279,32.8Z" transform="translate(0 -26.576)" fill="#313131"/>
      </g>
    </g>
  </g>
</svg>
