<svg id="history" xmlns="http://www.w3.org/2000/svg" width="33.126" height="37.859" viewBox="0 0 33.126 37.859">
  <path id="Path_76" data-name="Path 76" d="M31.943,77.372H4.338A4.342,4.342,0,0,1,0,73.034V43.851a1.183,1.183,0,0,1,2.366,0V73.034a1.975,1.975,0,0,0,1.972,1.972H30.76v-28a1.183,1.183,0,1,1,2.366,0V76.189A1.183,1.183,0,0,1,31.943,77.372Zm0,0" transform="translate(0 -39.513)" fill="#3a3a3a"/>
  <path id="Path_77" data-name="Path 77" d="M31.943,8.676H4.338A4.338,4.338,0,1,1,4.338,0h24.45a1.184,1.184,0,0,1,1.183,1.183V6.31h1.972a1.183,1.183,0,0,1,0,2.366ZM4.338,2.366a1.972,1.972,0,1,0,0,3.944H27.605V2.366Zm0,0" transform="translate(0 0)" fill="#3a3a3a"/>
  <path id="Path_78" data-name="Path 78" d="M95.585,180.507a10.253,10.253,0,1,1,10.253-10.253A10.265,10.265,0,0,1,95.585,180.507Zm0-18.141a7.887,7.887,0,1,0,7.887,7.887A7.9,7.9,0,0,0,95.585,162.366Zm0,0" transform="translate(-79.022 -148.169)" fill="#3a3a3a"/>
  <path id="Path_79" data-name="Path 79" d="M211.943,233.465a1.174,1.174,0,0,1-.836-.347l-2.761-2.761a1.181,1.181,0,0,1-.347-.836v-4.338a1.183,1.183,0,0,1,2.366,0v3.847l2.414,2.414a1.184,1.184,0,0,1-.836,2.021Zm0,0" transform="translate(-192.62 -207.437)" fill="#3a3a3a"/>
</svg>
