<svg xmlns="http://www.w3.org/2000/svg" width="39.881" height="30.575" viewBox="0 0 39.881 30.575">
  <defs>
    <style>
      .cls-1 {
        fill: #313131;
      }
    </style>
  </defs>
  <g id="homework" transform="translate(-2 -9)">
    <path id="Path_200" data-name="Path 200" class="cls-1" d="M41.216,11.659H39.222V9.665A.665.665,0,0,0,38.557,9H24.6a3.319,3.319,0,0,0-2.659,1.349A3.319,3.319,0,0,0,19.282,9H5.323a.665.665,0,0,0-.665.665v1.994H2.665A.665.665,0,0,0,2,12.323V38.911a.665.665,0,0,0,.665.665H41.216a.665.665,0,0,0,.665-.665V12.323A.665.665,0,0,0,41.216,11.659ZM3.329,38.246V12.988H4.659V36.252a.665.665,0,0,0,.665.665H19.282a2,2,0,0,1,1.874,1.329Zm17.946-1.974a3.273,3.273,0,0,0-1.994-.685H5.988V10.329H19.282a2,2,0,0,1,1.994,1.994Zm.665.665-.02-.02h.04Zm.665-24.613A2,2,0,0,1,24.6,10.329H37.893V35.587H24.6a3.273,3.273,0,0,0-1.994.685ZM40.552,38.246H22.725A2,2,0,0,1,24.6,36.917H38.557a.665.665,0,0,0,.665-.665V12.988h1.329Z" transform="translate(0 0)"/>
    <path id="Path_201" data-name="Path 201" class="cls-1" d="M45.659,13A2.659,2.659,0,0,0,43,15.659V31.611a.665.665,0,0,0,.093.339l1.994,3.323a.665.665,0,0,0,1.143,0l1.994-3.323a.665.665,0,0,0,.093-.339V15.659A2.659,2.659,0,0,0,45.659,13Zm0,20.645-1.1-1.835,1.1-.731,1.1.731Zm1.329-3.277-.665-.445V20.976H44.994v8.947l-.665.445V19.647h2.659Zm0-12.051H44.329V16.988h2.659Zm-2.659-2.659a1.329,1.329,0,1,1,2.659,0Z" transform="translate(-13.748 -1.341)"/>
    <path id="Path_202" data-name="Path 202" class="cls-1" d="M10,14H22.629v1.329H10Z" transform="translate(-2.683 -1.677)"/>
    <path id="Path_203" data-name="Path 203" class="cls-1" d="M10,18h7.311v1.329H10Z" transform="translate(-2.683 -3.018)"/>
    <path id="Path_204" data-name="Path 204" class="cls-1" d="M23,18h3.988v1.329H23Z" transform="translate(-7.042 -3.018)"/>
    <path id="Path_205" data-name="Path 205" class="cls-1" d="M10,22h2.659v1.329H10Z" transform="translate(-2.683 -4.359)"/>
    <path id="Path_206" data-name="Path 206" class="cls-1" d="M16,22h8.641v1.329H16Z" transform="translate(-4.694 -4.359)"/>
  </g>
</svg>
