<svg xmlns="http://www.w3.org/2000/svg" width="36.938" height="36.938" viewBox="0 0 36.938 36.938">
  <defs>
    <style>
      .cls-1 {
        fill: #484848;
      }
    </style>
  </defs>
  <g id="languages" transform="translate(0 0.001)">
    <path id="Path_188" data-name="Path 188" class="cls-1" d="M33.908,12.986H23.761c.032-.356.05-.716.05-1.081A11.908,11.908,0,0,0,5.957,1.59a.721.721,0,1,0,.722,1.249,10.463,10.463,0,1,1,5.227,19.528,10.345,10.345,0,0,1-6.561-2.313.722.722,0,0,0-.665-.127l-1.915.5.75-1.649a.721.721,0,0,0-.073-.723,10.468,10.468,0,0,1-.595-11.39A.722.722,0,0,0,1.6,5.942a11.913,11.913,0,0,0,.432,12.615L.823,21.21a.721.721,0,0,0,.839,1l3.068-.8a11.9,11.9,0,0,0,8.833,2.289v6.317a3.034,3.034,0,0,0,3.03,3.03H26.8l4.562,3.733a.721.721,0,0,0,1.178-.559V33.042h1.371a3.034,3.034,0,0,0,3.03-3.03v-14a3.033,3.033,0,0,0-3.03-3.03Zm1.587,17.026A1.589,1.589,0,0,1,33.908,31.6H31.816a.721.721,0,0,0-.721.721v2.373l-3.563-2.915c-.2-.179-.368-.179-.755-.179H16.593a1.589,1.589,0,0,1-1.587-1.587V23.4a11.945,11.945,0,0,0,8.534-8.971H33.908A1.589,1.589,0,0,1,35.5,16.016Zm0,0" transform="translate(0)"/>
    <path id="Path_189" data-name="Path 189" class="cls-1" d="M295.493,257.19a.721.721,0,0,0-.307-1.374h-.3l-2.327-5.3a.721.721,0,0,0-1.321,0l-2.327,5.3h-.3a.721.721,0,0,0-.307,1.374l-.867,1.975a.721.721,0,1,0,1.321.58l1.091-2.485h4.089l1.091,2.485a.721.721,0,1,0,1.321-.58Zm-5-1.374L291.9,252.6l1.412,3.217Zm0,0" transform="translate(-266.653 -232.04)"/>
    <path id="Path_190" data-name="Path 190" class="cls-1" d="M46.124,46.841a.722.722,0,1,0-.51-.211A.728.728,0,0,0,46.124,46.841Zm0,0" transform="translate(-42.127 -42.124)"/>
    <path id="Path_191" data-name="Path 191" class="cls-1" d="M100.508,95.53A.722.722,0,1,0,101.2,96.8a8.262,8.262,0,0,0,3.571-3.873,8.263,8.263,0,0,0,3.571,3.873.722.722,0,1,0,.694-1.265,6.823,6.823,0,0,1-3.466-4.964h3.2a.721.721,0,0,0,0-1.443h-3.28V86.116a.721.721,0,1,0-1.443,0v3.006h-2.606a.721.721,0,1,0,0,1.443h2.529A6.823,6.823,0,0,1,100.508,95.53Zm0,0" transform="translate(-92.909 -79.234)"/>
  </g>
</svg>
