<svg xmlns="http://www.w3.org/2000/svg" width="36.703" height="37" viewBox="0 0 36.703 37">
  <g id="library" transform="translate(0.001 0.001)">
    <path id="Path_280" data-name="Path 280" d="M198.1,213.332h-1.223a.617.617,0,0,0,0,1.233H198.1a.617.617,0,0,0,0-1.233Zm0,0" transform="translate(-182.197 -197.916)"/>
    <path id="Path_281" data-name="Path 281" d="M198.1,256h-1.223a.617.617,0,0,0,0,1.233H198.1a.617.617,0,0,0,0-1.233Zm0,0" transform="translate(-182.197 -237.501)"/>
    <path id="Path_282" data-name="Path 282" d="M198.1,298.668h-1.223a.617.617,0,0,0,0,1.233H198.1a.617.617,0,0,0,0-1.233Zm0,0" transform="translate(-182.197 -277.086)"/>
    <path id="Path_283" data-name="Path 283" d="M282.213,214.565h1.223a.617.617,0,0,0,0-1.233h-1.223a.617.617,0,0,0,0,1.233Zm0,0" transform="translate(-261.416 -197.916)"/>
    <path id="Path_284" data-name="Path 284" d="M282.213,257.233h1.223a.617.617,0,0,0,0-1.233h-1.223a.617.617,0,0,0,0,1.233Zm0,0" transform="translate(-261.416 -237.501)"/>
    <path id="Path_285" data-name="Path 285" d="M282.213,299.9h1.223a.617.617,0,0,0,0-1.233h-1.223a.617.617,0,0,0,0,1.233Zm0,0" transform="translate(-261.416 -277.085)"/>
    <path id="Path_286" data-name="Path 286" d="M145.128,181.666h-1.223v-1.233a1.23,1.23,0,0,0-1.223-1.233H138.4a1.814,1.814,0,0,0-1.223.481,1.814,1.814,0,0,0-1.223-.481h-4.282a1.23,1.23,0,0,0-1.223,1.233v1.233h-1.223A1.23,1.23,0,0,0,128,182.9v9.867A1.229,1.229,0,0,0,129.224,194h15.9a1.229,1.229,0,0,0,1.223-1.233V182.9a1.23,1.23,0,0,0-1.223-1.233Zm-8.564,11.1h-7.34V182.9h1.223v7.4a1.23,1.23,0,0,0,1.223,1.233h4.282a.615.615,0,0,1,.612.617Zm0-2.361a1.813,1.813,0,0,0-.612-.106h-4.282v-9.867h4.282a.615.615,0,0,1,.612.617Zm1.224-9.356a.615.615,0,0,1,.612-.617h4.282V190.3H138.4a1.814,1.814,0,0,0-.612.106Zm7.34,11.717h-7.34v-.617a.615.615,0,0,1,.612-.617h4.282a1.23,1.23,0,0,0,1.223-1.233v-7.4h1.223Zm0,0" transform="translate(-118.825 -166.25)"/>
    <path id="Path_287" data-name="Path 287" d="M36.665,6.6a.6.6,0,0,0-.032-.085.612.612,0,0,0-.075-.112.849.849,0,0,0-.248-.189c-.006,0-.011-.008-.017-.01L19.2.145a2.565,2.565,0,0,0-1.708,0L.408,6.2C.4,6.2.4,6.208.39,6.211a.6.6,0,0,0-.078.045A.6.6,0,0,0,.2,6.332.6.6,0,0,0,.143,6.4a.611.611,0,0,0-.075.112A.6.6,0,0,0,.036,6.6a.618.618,0,0,0-.027.137c0,.017-.01.032-.01.05V9.866A1.23,1.23,0,0,0,1.222,11.1H2.446v2.467a1.231,1.231,0,0,0,.612,1.062V29.6H1.834A1.229,1.229,0,0,0,.611,30.832v2.021A1.231,1.231,0,0,0,0,33.916v1.85A1.229,1.229,0,0,0,1.222,37H35.479A1.229,1.229,0,0,0,36.7,35.766v-1.85a1.231,1.231,0,0,0-.612-1.062V30.832A1.229,1.229,0,0,0,34.867,29.6H33.643V14.627a1.231,1.231,0,0,0,.612-1.062V11.1h1.223A1.23,1.23,0,0,0,36.7,9.866V6.782c0-.018-.008-.032-.01-.049a.621.621,0,0,0-.027-.137ZM17.9,1.309a1.344,1.344,0,0,1,.9,0L32.505,6.166H4.2ZM35.479,33.916v1.85H1.223v-1.85Zm-.612-3.083v1.85H1.834v-1.85ZM3.669,13.566V11.1H7.34v2.467ZM6.728,14.8V29.6H4.281V14.8Zm22.022-.172V29.6H7.951V14.627a1.23,1.23,0,0,0,.612-1.062V11.1H28.138v2.467a1.23,1.23,0,0,0,.612,1.062Zm.612-1.062V11.1h3.671v2.467ZM32.42,14.8V29.6H29.973V14.8Zm1.223-4.933H1.223V7.4H35.479V9.866Zm0,0" transform="translate(0 0)"/>
  </g>
</svg>
