<svg xmlns="http://www.w3.org/2000/svg" width="28.393" height="28.393" viewBox="0 0 28.393 28.393">
  <defs>
    <style>
      .cls-1 {
        fill: #313131;
      }
    </style>
  </defs>
  <g id="meeting" transform="translate(-0.008 0.001)">
    <path id="Path_147" data-name="Path 147" class="cls-1" d="M28.4,10.99h-.916V9.673A2.287,2.287,0,0,0,25.75,7.451l-1.929-.482v-.22a3.217,3.217,0,0,0,1.374-2.628v-.8A3.289,3.289,0,0,0,22.088,0a3.143,3.143,0,0,0-2.331.9,3.181,3.181,0,0,0-.973,2.3v.916a3.216,3.216,0,0,0,1.374,2.628v.22l-1.929.482a2.287,2.287,0,0,0-1.735,2.222V10.99h-.916v2.748h.916v8.243h2.29v.458a2.292,2.292,0,0,0,.916,1.822v.122l-1.545.441a2.289,2.289,0,0,0-1.2.834,2.289,2.289,0,0,0-1.2-.834L14.2,24.383v-.122a2.293,2.293,0,0,0,.916-1.822v-.821a2.356,2.356,0,0,0-2.086-2.376,2.29,2.29,0,0,0-2.493,2.281v.916a2.292,2.292,0,0,0,.916,1.822v.122l-1.545.441a2.289,2.289,0,0,0-1.2.834,2.289,2.289,0,0,0-1.2-.834l-1.545-.441v-.122a2.293,2.293,0,0,0,.916-1.822v-.821a2.356,2.356,0,0,0-2.086-2.376A2.29,2.29,0,0,0,2.3,21.523v.916a2.292,2.292,0,0,0,.916,1.822v.122l-1.545.441a2.3,2.3,0,0,0-1.66,2.2v1.366H25.653V27.027a2.3,2.3,0,0,0-1.661-2.2l-1.545-.441v-.122a2.293,2.293,0,0,0,.916-1.822v-.458h4.122V13.738H28.4ZM17.41,9.673A1.372,1.372,0,0,1,18.45,8.34l2.623-.656V6.235L20.845,6.1A2.3,2.3,0,0,1,19.7,4.121V3.205A2.29,2.29,0,0,1,22.06.917a2.367,2.367,0,0,1,2.219,2.4v.8A2.3,2.3,0,0,1,23.133,6.1l-.229.133,0,1.449,2.623.656a1.372,1.372,0,0,1,1.04,1.333V10.99H17.41Zm-9.159,17.8H.924v-.45a1.38,1.38,0,0,1,1-1.321l2.209-.632V23.753L3.9,23.621a1.359,1.359,0,0,1-.688-1.182v-.916a1.374,1.374,0,0,1,1.5-1.368,1.435,1.435,0,0,1,1.249,1.463v.821a1.359,1.359,0,0,1-.688,1.182l-.227.132v1.321l2.209.632a1.38,1.38,0,0,1,1,1.321Zm8.243,0H9.167v-.45a1.38,1.38,0,0,1,1-1.321l2.209-.632V23.753l-.228-.132a1.359,1.359,0,0,1-.688-1.182v-.916a1.374,1.374,0,0,1,1.5-1.368A1.435,1.435,0,0,1,14.2,21.618v.821a1.359,1.359,0,0,1-.688,1.182l-.227.132v1.321l2.209.632a1.38,1.38,0,0,1,1,1.321Zm5.953-5.037a1.359,1.359,0,0,1-.688,1.182l-.227.132v1.321l2.209.632a1.38,1.38,0,0,1,1,1.321v.45H17.41v-.45a1.38,1.38,0,0,1,1-1.321l2.209-.632V23.753l-.228-.132a1.359,1.359,0,0,1-.688-1.182v-.916a1.374,1.374,0,0,1,1.5-1.368,1.435,1.435,0,0,1,1.249,1.463Zm4.122-1.374H23.293a2.32,2.32,0,0,0-2.015-1.823,2.287,2.287,0,0,0-2.446,1.823H17.41V13.738h9.159Zm.916-8.243H16.494v-.916H27.485Zm0,0" transform="translate(0 0)"/>
    <path id="Path_148" data-name="Path 148" class="cls-1" d="M.924,11.919H7.335v2.813a1.832,1.832,0,1,0,.916,0V11.919h6.411V2.76h.916V.012H.008V2.76H.924ZM8.709,16.5a.916.916,0,1,1-.916-.916A.917.917,0,0,1,8.709,16.5ZM13.746,11H1.84V2.76H13.746ZM.924.928H14.662v.916H.924Zm0,0" transform="translate(0 -0.012)"/>
    <path id="Path_149" data-name="Path 149" class="cls-1" d="M178.756,64.012h-2.748v6.411h2.748Zm-.916,5.5h-.916V64.928h.916Zm0,0" transform="translate(-165.925 -60.349)"/>
    <path id="Path_150" data-name="Path 150" class="cls-1" d="M114.756,80.012h-2.748v5.5h2.748Zm-.916,4.579h-.916V80.928h.916Zm0,0" transform="translate(-105.589 -75.433)"/>
    <path id="Path_151" data-name="Path 151" class="cls-1" d="M50.755,112.012H48.008v3.664h2.748Zm-.916,2.748h-.916v-1.832h.916Zm0,0" transform="translate(-45.252 -105.601)"/>
  </g>
</svg>
