<svg id="network" xmlns="http://www.w3.org/2000/svg" width="36.702" height="36.702" viewBox="0 0 36.702 36.702">
  <defs>
    <style>
      .cls-1 {
        fill: #313131;
      }
    </style>
  </defs>
  <g id="Group_268" data-name="Group 268" transform="translate(31.808 7.34)">
    <g id="Group_267" data-name="Group 267">
      <path id="Path_152" data-name="Path 152" class="cls-1" d="M446.181,102.4a2.447,2.447,0,1,0,2.447,2.447A2.449,2.449,0,0,0,446.181,102.4Zm0,3.67a1.223,1.223,0,1,1,1.223-1.223A1.225,1.225,0,0,1,446.181,106.07Z" transform="translate(-443.734 -102.4)"/>
    </g>
  </g>
  <g id="Group_270" data-name="Group 270" transform="translate(0 27.526)">
    <g id="Group_269" data-name="Group 269">
      <path id="Path_153" data-name="Path 153" class="cls-1" d="M2.447,384a2.447,2.447,0,1,0,2.447,2.447A2.449,2.449,0,0,0,2.447,384Zm0,3.67a1.223,1.223,0,1,1,1.223-1.223A1.225,1.225,0,0,1,2.447,387.67Z" transform="translate(0 -384)"/>
    </g>
  </g>
  <g id="Group_272" data-name="Group 272" transform="translate(26.914 5.505)">
    <g id="Group_271" data-name="Group 271">
      <path id="Path_154" data-name="Path 154" class="cls-1" d="M381.617,79.4l-5.277-2.548a.612.612,0,0,0-.532,1.1l5.277,2.548a.612.612,0,0,0,.532-1.1Z" transform="translate(-375.463 -76.792)"/>
    </g>
  </g>
  <g id="Group_274" data-name="Group 274" transform="translate(25.08 31.808)">
    <g id="Group_273" data-name="Group 273">
      <path id="Path_155" data-name="Path 155" class="cls-1" d="M352.314,443.733a2.447,2.447,0,1,0,2.447,2.447A2.449,2.449,0,0,0,352.314,443.733Zm0,3.67a1.223,1.223,0,1,1,1.223-1.223A1.225,1.225,0,0,1,352.314,447.4Z" transform="translate(-349.867 -443.733)"/>
    </g>
  </g>
  <g id="Group_276" data-name="Group 276" transform="translate(20.186 29.972)">
    <g id="Group_275" data-name="Group 275">
      <path id="Path_156" data-name="Path 156" class="cls-1" d="M287.75,420.733l-5.277-2.548a.612.612,0,0,0-.532,1.1l5.277,2.548a.612.612,0,1,0,.532-1.1Z" transform="translate(-281.596 -418.124)"/>
    </g>
  </g>
  <g id="Group_278" data-name="Group 278" transform="translate(15.904 16.516)">
    <g id="Group_277" data-name="Group 277">
      <path id="Path_157" data-name="Path 157" class="cls-1" d="M224.314,230.4a2.447,2.447,0,1,0,2.447,2.447A2.449,2.449,0,0,0,224.314,230.4Zm0,3.67a1.223,1.223,0,1,1,1.223-1.223A1.225,1.225,0,0,1,224.314,234.07Z" transform="translate(-221.867 -230.4)"/>
    </g>
  </g>
  <g id="Group_280" data-name="Group 280" transform="translate(12.234 14.069)">
    <g id="Group_279" data-name="Group 279">
      <path id="Path_158" data-name="Path 158" class="cls-1" d="M175.706,199.56l-4.054-3.159a.612.612,0,0,0-.752.965l4.054,3.159a.612.612,0,1,0,.752-.965Z" transform="translate(-170.664 -196.272)"/>
    </g>
  </g>
  <g id="Group_282" data-name="Group 282" transform="translate(22.633 15.904)">
    <g id="Group_281" data-name="Group 281">
      <path id="Path_159" data-name="Path 159" class="cls-1" d="M322.462,221.867a6.729,6.729,0,1,0,6.729,6.729A6.737,6.737,0,0,0,322.462,221.867Zm0,12.234a5.505,5.505,0,1,1,5.505-5.505A5.511,5.511,0,0,1,322.462,234.1Z" transform="translate(-315.733 -221.867)"/>
    </g>
  </g>
  <g id="Group_284" data-name="Group 284" transform="translate(26.915 18.351)">
    <g id="Group_283" data-name="Group 283">
      <path id="Path_160" data-name="Path 160" class="cls-1" d="M377.914,256a2.447,2.447,0,1,0,2.447,2.447A2.449,2.449,0,0,0,377.914,256Zm0,3.67a1.223,1.223,0,1,1,1.223-1.223A1.225,1.225,0,0,1,377.914,259.67Z" transform="translate(-375.467 -256)"/>
    </g>
  </g>
  <g id="Group_286" data-name="Group 286" transform="translate(25.691 24.468)">
    <g id="Group_285" data-name="Group 285">
      <path id="Path_161" data-name="Path 161" class="cls-1" d="M363.845,341.333H360.3a1.873,1.873,0,0,0-1.9,1.844v1.612a.612.612,0,0,0,.305.53,6.694,6.694,0,0,0,6.73,0,.611.611,0,0,0,.305-.529v-1.612A1.873,1.873,0,0,0,363.845,341.333Zm.672,3.092a5.547,5.547,0,0,1-4.894,0v-1.247a.649.649,0,0,1,.672-.621h3.549a.649.649,0,0,1,.672.621v1.247Z" transform="translate(-358.4 -341.333)"/>
    </g>
  </g>
  <g id="Group_288" data-name="Group 288" transform="translate(7.952 23.244)">
    <g id="Group_287" data-name="Group 287">
      <path id="Path_162" data-name="Path 162" class="cls-1" d="M117.662,324.267A6.729,6.729,0,1,0,124.39,331,6.737,6.737,0,0,0,117.662,324.267Zm0,12.234A5.505,5.505,0,1,1,123.167,331,5.511,5.511,0,0,1,117.662,336.5Z" transform="translate(-110.933 -324.267)"/>
    </g>
  </g>
  <g id="Group_290" data-name="Group 290" transform="translate(12.234 25.691)">
    <g id="Group_289" data-name="Group 289">
      <path id="Path_163" data-name="Path 163" class="cls-1" d="M173.114,358.4a2.447,2.447,0,1,0,2.447,2.447A2.449,2.449,0,0,0,173.114,358.4Zm0,3.67a1.223,1.223,0,1,1,1.223-1.223A1.225,1.225,0,0,1,173.114,362.07Z" transform="translate(-170.667 -358.4)"/>
    </g>
  </g>
  <g id="Group_292" data-name="Group 292" transform="translate(11.011 31.808)">
    <g id="Group_291" data-name="Group 291">
      <path id="Path_164" data-name="Path 164" class="cls-1" d="M159.045,443.733H155.5a1.873,1.873,0,0,0-1.9,1.844v1.612a.612.612,0,0,0,.305.53,6.694,6.694,0,0,0,6.73,0,.611.611,0,0,0,.305-.529v-1.612A1.873,1.873,0,0,0,159.045,443.733Zm.672,3.092a5.547,5.547,0,0,1-4.894,0v-1.247a.649.649,0,0,1,.672-.621h3.549a.649.649,0,0,1,.672.621v1.247Z" transform="translate(-153.6 -443.733)"/>
    </g>
  </g>
  <g id="Group_294" data-name="Group 294" transform="translate(0 7.952)">
    <g id="Group_293" data-name="Group 293">
      <path id="Path_165" data-name="Path 165" class="cls-1" d="M6.729,110.933a6.729,6.729,0,1,0,6.729,6.729A6.737,6.737,0,0,0,6.729,110.933Zm0,12.234a5.505,5.505,0,1,1,5.505-5.505A5.511,5.511,0,0,1,6.729,123.167Z" transform="translate(0 -110.933)"/>
    </g>
  </g>
  <g id="Group_296" data-name="Group 296" transform="translate(4.282 10.399)">
    <g id="Group_295" data-name="Group 295">
      <path id="Path_166" data-name="Path 166" class="cls-1" d="M62.181,145.067a2.447,2.447,0,1,0,2.447,2.447A2.449,2.449,0,0,0,62.181,145.067Zm0,3.67a1.223,1.223,0,1,1,1.223-1.223A1.225,1.225,0,0,1,62.181,148.737Z" transform="translate(-59.734 -145.067)"/>
    </g>
  </g>
  <g id="Group_298" data-name="Group 298" transform="translate(3.059 16.516)">
    <g id="Group_297" data-name="Group 297">
      <path id="Path_167" data-name="Path 167" class="cls-1" d="M48.112,230.4H44.563a1.873,1.873,0,0,0-1.9,1.844v1.612a.612.612,0,0,0,.305.53,6.695,6.695,0,0,0,6.73,0,.611.611,0,0,0,.305-.529v-1.612A1.873,1.873,0,0,0,48.112,230.4Zm.672,3.092a5.547,5.547,0,0,1-4.894,0v-1.247a.649.649,0,0,1,.672-.621h3.549a.649.649,0,0,1,.672.621v1.247Z" transform="translate(-42.667 -230.4)"/>
    </g>
  </g>
  <g id="Group_300" data-name="Group 300" transform="translate(14.681)">
    <g id="Group_299" data-name="Group 299">
      <path id="Path_168" data-name="Path 168" class="cls-1" d="M211.529,0a6.729,6.729,0,1,0,6.729,6.729A6.737,6.737,0,0,0,211.529,0Zm0,12.234a5.505,5.505,0,1,1,5.505-5.505A5.511,5.511,0,0,1,211.529,12.234Z" transform="translate(-204.8)"/>
    </g>
  </g>
  <g id="Group_302" data-name="Group 302" transform="translate(18.963 2.447)">
    <g id="Group_301" data-name="Group 301">
      <path id="Path_169" data-name="Path 169" class="cls-1" d="M266.981,34.133a2.447,2.447,0,1,0,2.447,2.447A2.449,2.449,0,0,0,266.981,34.133Zm0,3.67A1.223,1.223,0,1,1,268.2,36.58,1.225,1.225,0,0,1,266.981,37.8Z" transform="translate(-264.534 -34.133)"/>
    </g>
  </g>
  <g id="Group_304" data-name="Group 304" transform="translate(17.739 8.564)">
    <g id="Group_303" data-name="Group 303">
      <path id="Path_170" data-name="Path 170" class="cls-1" d="M252.912,119.467h-3.549a1.873,1.873,0,0,0-1.9,1.844v1.612a.612.612,0,0,0,.305.53,6.694,6.694,0,0,0,6.73,0,.611.611,0,0,0,.305-.529v-1.612A1.873,1.873,0,0,0,252.912,119.467Zm.672,3.092a5.547,5.547,0,0,1-4.894,0v-1.247a.649.649,0,0,1,.672-.621h3.549a.649.649,0,0,1,.672.621v1.247Z" transform="translate(-247.467 -119.467)"/>
    </g>
  </g>
  <g id="Group_306" data-name="Group 306" transform="translate(10.442 6.117)">
    <g id="Group_305" data-name="Group 305">
      <path id="Path_171" data-name="Path 171" class="cls-1" d="M150.987,85.547a.613.613,0,0,0-.862-.067l-4.239,3.627a.611.611,0,1,0,.8.929l4.239-3.627A.611.611,0,0,0,150.987,85.547Z" transform="translate(-145.671 -85.333)"/>
    </g>
  </g>
  <g id="Group_308" data-name="Group 308" transform="translate(24.468 11.011)">
    <g id="Group_307" data-name="Group 307">
      <path id="Path_172" data-name="Path 172" class="cls-1" d="M346.1,158.748l-3.67-4.894a.612.612,0,0,0-.979.733l3.67,4.894a.612.612,0,0,0,.979-.733Z" transform="translate(-341.333 -153.61)"/>
    </g>
  </g>
  <g id="Group_310" data-name="Group 310" transform="translate(19.701 24.411)">
    <g id="Group_309" data-name="Group 309">
      <path id="Path_173" data-name="Path 173" class="cls-1" d="M279.351,340.785a.612.612,0,0,0-.856-.122l-3.417,2.562a.611.611,0,0,0,.734.978l3.417-2.562A.611.611,0,0,0,279.351,340.785Z" transform="translate(-274.833 -340.54)"/>
    </g>
  </g>
  <g id="Group_312" data-name="Group 312" transform="translate(3.67 29.361)">
    <g id="Group_311" data-name="Group 311">
      <path id="Path_174" data-name="Path 174" class="cls-1" d="M56.094,409.6H51.812a.612.612,0,1,0,0,1.223h4.282a.612.612,0,0,0,0-1.223Z" transform="translate(-51.2 -409.6)"/>
    </g>
  </g>
  <g id="Group_314" data-name="Group 314" transform="translate(4.282)">
    <g id="Group_313" data-name="Group 313">
      <path id="Path_175" data-name="Path 175" class="cls-1" d="M62.18,0a2.447,2.447,0,1,0,2.447,2.447A2.449,2.449,0,0,0,62.18,0Zm0,3.67A1.223,1.223,0,1,1,63.4,2.447,1.225,1.225,0,0,1,62.18,3.67Z" transform="translate(-59.733)"/>
    </g>
  </g>
  <g id="Group_316" data-name="Group 316" transform="translate(6.117 3.67)">
    <g id="Group_315" data-name="Group 315">
      <path id="Path_176" data-name="Path 176" class="cls-1" d="M85.946,51.2a.612.612,0,0,0-.612.612v4.282a.612.612,0,0,0,1.223,0V51.812A.611.611,0,0,0,85.946,51.2Z" transform="translate(-85.334 -51.2)"/>
    </g>
  </g>
</svg>
