<?xml version="1.0"?>
<svg xmlns="http://www.w3.org/2000/svg" id="Layer_1" data-name="Layer 1" viewBox="0 0 512 512" width="512px" height="512px"><g><path d="M478.691,6H33.309A6.3,6.3,0,0,0,27,12.037V68.675A6.556,6.556,0,0,0,33.309,75H43V307H33.309A6.678,6.678,0,0,0,27,313.46V370.1a6.19,6.19,0,0,0,6.309,5.9H217.07l-68.879,75.386a6,6,0,1,0,8.856,8.091L233.33,376H249V506h12V376h16.625l77.326,84.625a6,6,0,1,0,8.857-8.1L293.885,376H478.691A6.19,6.19,0,0,0,485,370.1V313.46a6.678,6.678,0,0,0-6.309-6.46H469V75h9.691A6.556,6.556,0,0,0,485,68.675V12.037A6.3,6.3,0,0,0,478.691,6ZM473,364H39V319H473Zm-16-57H55V75H457ZM473,63H39V18H473Z" data-original="#000000" class="active-path" data-old_color="#000000" fill="#313131"/><path d="M125.3,157.014,161,170.933v89.145a6.06,6.06,0,0,0,3.969,5.622,242.254,242.254,0,0,0,169.151,0,5.978,5.978,0,0,0,3.88-5.622V170.933L366,160.2v34.06a20.545,20.545,0,0,0-14.927,19.989,20.938,20.938,0,0,0,41.875,0c0-9.5-6.948-17.532-14.948-20.069V152.412c0-.2-.176-.4-.2-.6.01-.148-.051-.294-.052-.445a6.04,6.04,0,0,0-3.971-5.575L251.7,100.924a6.042,6.042,0,0,0-4.15,0L125.476,145.79a6.031,6.031,0,0,0-3.964,5.575A5.97,5.97,0,0,0,125.3,157.014ZM173,255.871V229.006a243.122,243.122,0,0,0,76.5,12.405,243.122,243.122,0,0,0,76.5-12.4v26.865A230.344,230.344,0,0,1,173,255.871Zm153-39.543a230.32,230.32,0,0,1-153,0V175.6l74.365,28.917a6.176,6.176,0,0,0,2.208.408,5.881,5.881,0,0,0,2.152-.408L326,175.6Zm54.742-2.083a8.917,8.917,0,1,1-8.917-8.916A8.927,8.927,0,0,1,380.742,214.245Zm-131.137-101.3,105.109,38.634-24.352,9.478a5.9,5.9,0,0,0-.847.329l-79.91,31.1-79.91-31.1a5.883,5.883,0,0,0-.846-.329L144.5,151.582Z" data-original="#000000" class="active-path" data-old_color="#000000" fill="#313131"/></g> </svg>
