<svg xmlns="http://www.w3.org/2000/svg" width="36.701" height="37" viewBox="0 0 36.701 37">
  <path id="rules" d="M36.7,25.557c0-.008,0-.017,0-.025s0,0,0-.006,0-.027,0-.041,0-.013,0-.02,0-.023-.005-.035,0-.017,0-.025,0-.018-.007-.027-.006-.022-.009-.032l-.007-.021c0-.012-.009-.024-.014-.036l0-.006L30.359,11.338V9.51h.04a1.235,1.235,0,0,0,1.229-1.239V8.176a1.231,1.231,0,0,0-1.033-1.223L20.212,5.264V4.191a2.5,2.5,0,1,0-3.726,0V5.206L6.1,6.952A1.232,1.232,0,0,0,5.072,8.173v.1A1.235,1.235,0,0,0,6.3,9.51h.04v1.828L.052,25.284l0,.006c-.005.012-.01.024-.014.036l-.008.021c0,.01-.006.021-.009.032s0,.018-.007.027,0,.017,0,.025,0,.023-.005.035,0,.013,0,.02,0,.027,0,.041,0,0,0,.006,0,.017,0,.025,0,.014,0,.02c.037,2.465,3.069,4.39,6.934,4.39s6.9-1.925,6.934-4.39c0-.007,0-.014,0-.02s0-.017,0-.025,0,0,0-.006,0-.027,0-.041,0-.013,0-.02,0-.023-.005-.035,0-.017,0-.025,0-.018-.007-.027-.006-.022-.009-.032l-.007-.021c0-.012-.009-.024-.014-.036l0-.006L7.53,11.338V9.51h8.957V22.531a1.241,1.241,0,0,0-.634,1.083v8.829L12.087,33.63a1.868,1.868,0,0,0-1.307,1.793V36.4a.6.6,0,0,0,.595.6H25.325a.6.6,0,0,0,.595-.6v-.978a1.868,1.868,0,0,0-1.307-1.793l-3.766-1.186V23.614a1.241,1.241,0,0,0-.634-1.083V9.51H29.17v1.828L22.882,25.284l0,.006c-.005.012-.01.024-.014.036l-.008.021c0,.01-.006.021-.009.032s0,.018-.007.027,0,.017,0,.025,0,.023-.005.035,0,.013,0,.02,0,.027,0,.041,0,0,0,.006,0,.017,0,.025,0,.014,0,.02c.037,2.465,3.069,4.39,6.934,4.39s6.9-1.925,6.934-4.39C36.7,25.571,36.7,25.564,36.7,25.557ZM6.935,12.916l5.418,12.017H1.517Zm0,15.853c-2.753,0-5.128-1.157-5.643-2.637H12.579C12.063,27.612,9.688,28.769,6.935,28.769Zm12.723-5.154v8.671H17.042V23.614a.04.04,0,0,1,.04-.04h2.537A.04.04,0,0,1,19.658,23.614Zm-1.982-1.239V4.941a2.464,2.464,0,0,0,1.348,0V22.376ZM18.35,1.2a1.319,1.319,0,1,1-1.308,1.319A1.315,1.315,0,0,1,18.35,1.2ZM6.3,8.311a.04.04,0,0,1-.04-.04v-.1a.04.04,0,0,1,.033-.039L16.487,6.421v1.89Zm18.43,27.112V35.8H11.969v-.379a.676.676,0,0,1,.473-.648l4.1-1.291h3.623l4.1,1.291A.676.676,0,0,1,24.731,35.423ZM20.212,6.479,30.4,8.137a.04.04,0,0,1,.033.039v.095a.04.04,0,0,1-.04.04H20.212Zm9.552,6.437,5.418,12.017H24.346Zm0,15.853c-2.753,0-5.128-1.157-5.643-2.637H35.408C34.892,27.612,32.517,28.769,29.764,28.769Z" transform="translate(0.001)"/>
</svg>
