<svg xmlns="http://www.w3.org/2000/svg" width="34.357" height="34.357" viewBox="0 0 34.357 34.357">
  <g id="sleep" transform="translate(0)">
    <path id="Path_111" data-name="Path 111" d="M31.337,157.039H15.165a3.023,3.023,0,0,0-3.02,3.02v1.007H11.6a4.026,4.026,0,1,0-6.969,0H2.013v-9.059a1.007,1.007,0,0,0-2.013,0v22.211a1.007,1.007,0,1,0,2.013,0v-3.087H32.344v3.087a1.007,1.007,0,1,0,2.013,0V160.059A3.023,3.023,0,0,0,31.337,157.039Zm-17.179,3.02a1.008,1.008,0,0,1,1.007-1.007H31.337a1.008,1.008,0,0,1,1.007,1.007v5.033H14.159Zm-8.052-1.007a2.013,2.013,0,1,1,2.013,2.013A2.015,2.015,0,0,1,6.106,159.052ZM2.013,169.118v-6.039H12.146v3.02a1.006,1.006,0,0,0,1.007,1.007H32.344v2.013Zm0,0" transform="translate(0 -140.867)" fill="#313131"/>
    <path id="Path_112" data-name="Path 112" d="M151.077,95.418a1.007,1.007,0,0,0,.93.621h4.026a1.007,1.007,0,0,0,0-2.013h-1.6l2.308-2.308A1.006,1.006,0,0,0,156.033,90h-4.026a1.007,1.007,0,1,0,0,2.013h1.6L151.3,94.321A1.007,1.007,0,0,0,151.077,95.418Zm0,0" transform="translate(-140.867 -83.96)" fill="#313131"/>
    <path id="Path_113" data-name="Path 113" d="M271.077,5.418a1.007,1.007,0,0,0,.93.621h4.026a1.007,1.007,0,0,0,0-2.013h-1.6l2.308-2.308A1.006,1.006,0,0,0,276.033,0h-4.026a1.007,1.007,0,0,0,0,2.013h1.6L271.3,4.321A1.007,1.007,0,0,0,271.077,5.418Zm0,0" transform="translate(-252.815)" fill="#313131"/>
  </g>
</svg>
