<svg xmlns="http://www.w3.org/2000/svg" width="41.818" height="36.745" viewBox="0 0 41.818 36.745">
  <defs>
    <style>
      .cls-1 {
        fill: #313131;
      }
    </style>
  </defs>
  <g id="sociology_1_" data-name="sociology (1)" transform="translate(0.001 -0.5)">
    <path id="Path_186" data-name="Path 186" class="cls-1" d="M38.077,29.158l-1.688-.571a3.938,3.938,0,0,0,1.553-3.12V24.26a3.9,3.9,0,0,0-.081-.792A.618.618,0,0,0,37.131,23a.6.6,0,0,0-.484.711,2.719,2.719,0,0,1,.056.554v1.206a2.847,2.847,0,0,1-5.691,0V24.26a2.814,2.814,0,0,1,2.846-2.774,2.9,2.9,0,0,1,1.45.387.627.627,0,0,0,.848-.211.594.594,0,0,0-.216-.826,4.133,4.133,0,0,0-1.463-.508V13.083A5.5,5.5,0,0,0,28.91,7.656H26.517L28.4,6.6a.6.6,0,0,0,.226-.824L26.977,2.987a.618.618,0,0,0-.376-.281.635.635,0,0,0-.47.06l-1.955,1.1a5.55,5.55,0,0,0-1-.564V1.1a.611.611,0,0,0-.619-.6h-3.3a.611.611,0,0,0-.619.6V3.3a5.55,5.55,0,0,0-1,.564l-1.955-1.1a.634.634,0,0,0-.469-.06.617.617,0,0,0-.376.281L13.191,5.772a.6.6,0,0,0,.227.824L15.3,7.656H12.908A5.5,5.5,0,0,0,7.34,13.083v7.244a4.135,4.135,0,0,0-1.463.508.594.594,0,0,0-.216.826.628.628,0,0,0,.848.211,2.9,2.9,0,0,1,1.45-.387A2.814,2.814,0,0,1,10.8,24.26v1.206a2.847,2.847,0,0,1-5.691,0V24.26a2.742,2.742,0,0,1,.056-.554A.6.6,0,0,0,4.686,23a.618.618,0,0,0-.729.472,3.921,3.921,0,0,0-.081.792v1.206a3.939,3.939,0,0,0,1.553,3.12l-1.688.571A5.442,5.442,0,0,0,0,34.285v2.357a.611.611,0,0,0,.619.6H17.651a.6.6,0,1,0,0-1.206H14.186V34.285A4.233,4.233,0,0,1,17.1,30.3l.724-.245,2.553,4.318a.627.627,0,0,0,1.072,0L24,30.052l.724.245a4.233,4.233,0,0,1,2.91,3.988v1.754H20.542a.6.6,0,1,0,0,1.206H41.2a.611.611,0,0,0,.618-.6V34.285a5.441,5.441,0,0,0-3.741-5.127Zm-2.92.288.6.2-1.9,3.212-1.9-3.212.6-.2ZM15.6,4.112l1.782,1a.632.632,0,0,0,.711-.064,4.339,4.339,0,0,1,1.369-.772.6.6,0,0,0,.413-.569v-2H21.94v2a.6.6,0,0,0,.412.569,4.336,4.336,0,0,1,1.369.772.632.632,0,0,0,.711.064l1.782-1,1.031,1.741-1.782,1a.6.6,0,0,0-.3.632,4.1,4.1,0,0,1,0,1.544.6.6,0,0,0,.3.632l1.782,1-1.031,1.741-1.782-1a.632.632,0,0,0-.711.064,4.336,4.336,0,0,1-1.369.772.6.6,0,0,0-.412.569v2H19.878v-2a.6.6,0,0,0-.413-.569,4.339,4.339,0,0,1-1.369-.772.632.632,0,0,0-.711-.064l-1.782,1-1.031-1.741,1.782-1a.6.6,0,0,0,.3-.632,4.1,4.1,0,0,1,0-1.544.6.6,0,0,0-.3-.632l-1.782-1ZM20.909,28.24a2.814,2.814,0,0,1-2.846-2.774V24.26a2.847,2.847,0,0,1,5.691,0v1.206a2.814,2.814,0,0,1-2.846,2.774ZM9.257,29.446l.6.2-1.9,3.212-1.9-3.212.6-.2Zm-8.02,6.593V34.285A4.233,4.233,0,0,1,4.147,30.3l.724-.245L7.423,34.37a.626.626,0,0,0,1.072,0l2.553-4.318.724.245a4.291,4.291,0,0,1,1.913,1.295,5.313,5.313,0,0,0-.736,2.693v1.754Zm15.454-6.881A5.571,5.571,0,0,0,14.435,30.6a5.534,5.534,0,0,0-2.258-1.438l-1.688-.571a3.939,3.939,0,0,0,1.553-3.12V24.26a4.02,4.02,0,0,0-3.464-3.935V13.083a4.282,4.282,0,0,1,4.33-4.221H15.3l-1.884,1.06a.594.594,0,0,0-.226.824l1.649,2.785a.617.617,0,0,0,.376.281.632.632,0,0,0,.47-.06l1.955-1.1a5.569,5.569,0,0,0,1,.564v2.2a.611.611,0,0,0,.619.6H20.29v4.307a4.02,4.02,0,0,0-3.464,3.935v1.206a3.939,3.939,0,0,0,1.553,3.12Zm4.218,3.7-1.9-3.212.6-.2h2.6l.6.2Zm4.218-3.7-1.688-.571a3.938,3.938,0,0,0,1.553-3.12V24.26a4.02,4.02,0,0,0-3.464-3.935V16.018h1.031a.611.611,0,0,0,.619-.6v-2.2a5.572,5.572,0,0,0,1-.564l1.955,1.1a.632.632,0,0,0,.47.06.616.616,0,0,0,.376-.281l1.65-2.785a.6.6,0,0,0-.227-.824l-1.884-1.06H28.91a4.282,4.282,0,0,1,4.33,4.221v7.242a4.02,4.02,0,0,0-3.464,3.935v1.206a3.938,3.938,0,0,0,1.553,3.12l-1.688.571A5.536,5.536,0,0,0,27.383,30.6a5.568,5.568,0,0,0-2.256-1.438Zm15.454,6.881H28.869V34.285a5.31,5.31,0,0,0-.736-2.693A4.294,4.294,0,0,1,30.046,30.3l.724-.245,2.553,4.318a.627.627,0,0,0,1.072,0l2.553-4.318.724.245a4.233,4.233,0,0,1,2.91,3.987Zm0,0"/>
    <path id="Path_187" data-name="Path 187" class="cls-1" d="M230.612,74.944a2.382,2.382,0,1,0-2.382-2.382A2.385,2.385,0,0,0,230.612,74.944Zm0-3.465a1.083,1.083,0,1,1-1.083,1.083A1.084,1.084,0,0,1,230.612,71.479Zm0,0" transform="translate(-209.704 -64.191)"/>
  </g>
</svg>
