<svg xmlns="http://www.w3.org/2000/svg" width="33.897" height="32.766" viewBox="0 0 33.897 32.766">
  <defs>
    <style>
      .cls-1 {
        fill: #313131;
      }
    </style>
  </defs>
  <g id="study" transform="translate(20 -0.006)">
    <g id="Group_265" data-name="Group 265" transform="translate(-20 0.006)">
      <path id="Path_142" data-name="Path 142" class="cls-1" d="M31.911,17.514V14.469a.977.977,0,0,0-.993-.96,30.962,30.962,0,0,0-5.771.509,9.043,9.043,0,0,0-3.728-2.087A6.621,6.621,0,0,0,23.9,6.79a6.954,6.954,0,0,0-13.9,0,6.621,6.621,0,0,0,2.482,5.142,9.045,9.045,0,0,0-3.728,2.087,30.967,30.967,0,0,0-5.771-.509.977.977,0,0,0-.993.96v3.045A2.893,2.893,0,0,0,0,20.229v1.92a2.893,2.893,0,0,0,1.986,2.715v3.045a.977.977,0,0,0,.993.96A23.693,23.693,0,0,1,16.4,32.611a1.025,1.025,0,0,0,1.1,0,23.693,23.693,0,0,1,13.419-3.743.977.977,0,0,0,.993-.96V24.864A2.893,2.893,0,0,0,33.9,22.149v-1.92A2.893,2.893,0,0,0,31.911,17.514ZM11.983,6.79a4.967,4.967,0,0,1,9.931,0,4.968,4.968,0,0,1-9.931,0Zm-9,16.319a.978.978,0,0,1-.993-.96v-1.92a.978.978,0,0,1,.993-.96.978.978,0,0,1,.993.96v1.92A.978.978,0,0,1,2.979,23.109ZM15.956,30.09A25.508,25.508,0,0,0,3.972,26.962v-2.1a2.893,2.893,0,0,0,1.986-2.715v-1.92a2.893,2.893,0,0,0-1.986-2.715V15.443a23.014,23.014,0,0,1,11.983,3.386Zm.993-12.924A23.994,23.994,0,0,0,11.171,14.6a7.141,7.141,0,0,1,3.791-1.089h3.972A7.141,7.141,0,0,1,22.726,14.6,23.993,23.993,0,0,0,16.949,17.166Zm12.976,9.8A25.51,25.51,0,0,0,17.942,30.09V18.83a23.011,23.011,0,0,1,11.983-3.387v2.071a2.893,2.893,0,0,0-1.986,2.715v1.92a2.893,2.893,0,0,0,1.986,2.715Zm1.986-4.814a.994.994,0,0,1-1.986,0v-1.92a.994.994,0,0,1,1.986,0Z" transform="translate(0 -0.006)"/>
    </g>
  </g>
</svg>
