<svg id="class" xmlns="http://www.w3.org/2000/svg" width="28.815" height="27" viewBox="0 0 28.815 27">
  <defs>
    <style>
      .cls-1 {
        fill: #313131;
      }
    </style>
  </defs>
  <g id="Group_262" data-name="Group 262" transform="translate(3.24)">
    <g id="Group_261" data-name="Group 261">
      <path id="Path_140" data-name="Path 140" class="cls-1" d="M77.592,0A2.627,2.627,0,0,0,75,2.635a2.592,2.592,0,0,0,5.183,0A2.627,2.627,0,0,0,77.592,0Zm0,3.931a1.3,1.3,0,0,1-1.3-1.3,1.3,1.3,0,1,1,2.592,0A1.3,1.3,0,0,1,77.592,3.931Z" transform="translate(-75)"/>
    </g>
  </g>
  <g id="Group_264" data-name="Group 264">
    <g id="Group_263" data-name="Group 263">
      <path id="Path_141" data-name="Path 141" class="cls-1" d="M26.283,0H14.351a2.46,2.46,0,0,0-2.533,2.373v5.4l-.742-.7a2.6,2.6,0,0,0-1.791-.7H4.221A4.1,4.1,0,0,0,0,10.336v4.746a2.46,2.46,0,0,0,2.533,2.373,2.675,2.675,0,0,0,.844-.136v7.307A2.46,2.46,0,0,0,5.909,27,2.62,2.62,0,0,0,7.6,26.394,2.62,2.62,0,0,0,9.286,27a2.46,2.46,0,0,0,2.533-2.373V14.156a2.7,2.7,0,0,0,1.977-.116l2.842-1.332h9.645a2.46,2.46,0,0,0,2.533-2.373V2.373A2.46,2.46,0,0,0,26.283,0ZM16.417,11.044l-3.376,1.582a.887.887,0,0,1-.976-.148l-.494-.463a.853.853,0,0,0-1.441.557V24.627a.846.846,0,0,1-1.688,0V16.664a.846.846,0,0,0-1.688,0v7.963a.846.846,0,0,1-1.688,0V10.336a.819.819,0,0,0-.844-.791.819.819,0,0,0-.844.791v4.746a.82.82,0,0,1-.844.791.82.82,0,0,1-.844-.791c0-.6,0-4.259,0-4.746A2.46,2.46,0,0,1,4.221,7.963H9.286a.868.868,0,0,1,.6.232L12.4,10.552a.887.887,0,0,0,.974.148l2.289-1.072a.869.869,0,0,1,1.133.354A.768.768,0,0,1,16.417,11.044Zm10.71-.708a.82.82,0,0,1-.844.791H18.427c.005-.014.011-.027.016-.041a2.223,2.223,0,0,0,.112-1.044l4.617-2.163a.769.769,0,0,0,.378-1.061.871.871,0,0,0-1.133-.354L17.8,8.627a2.66,2.66,0,0,0-2.892-.414l-1.4.656v-6.5a.82.82,0,0,1,.844-.791H26.283a.82.82,0,0,1,.844.791Z"/>
    </g>
  </g>
</svg>
