<svg xmlns="http://www.w3.org/2000/svg" width="39.909" height="30.91" viewBox="0 0 39.909 30.91">
  <defs>
    <style>
      .cls-1 {
        fill: #313131;
      }

      .cls-2 {
        fill: none;
      }
    </style>
  </defs>
  <g id="document-with-pen" transform="translate(9)">
    <g id="Group_14" data-name="Group 14">
      <g id="Group_13" data-name="Group 13">
        <path id="Path_39" data-name="Path 39" class="cls-1" d="M30.13,9.728a2.72,2.72,0,0,0-3.842,0l-2.724,2.727V5.278a2.7,2.7,0,0,0-.8-1.921L20.206.8A2.7,2.7,0,0,0,18.285,0H2.735A2.72,2.72,0,0,0,.018,2.717V28.194A2.72,2.72,0,0,0,2.735,30.91H20.846a2.72,2.72,0,0,0,2.717-2.717V20.142L30.13,13.57A2.715,2.715,0,0,0,30.13,9.728Zm-12-7.916a.988.988,0,0,1,.8.265l2.561,2.561a.988.988,0,0,1,.265.8H18.13Zm3.622,26.383a.907.907,0,0,1-.906.906H2.735a.907.907,0,0,1-.906-.906V2.717a.907.907,0,0,1,.906-.906H16.318V6.339a.906.906,0,0,0,.906.906h4.528v7.023L19.08,16.941l-1.28,1.28a.906.906,0,0,0-.219.354L16.3,22.417a.906.906,0,0,0,1.145,1.146l3.842-1.281a.9.9,0,0,0,.354-.219l.11-.11v6.24Zm-2.031-9.332L21,20.143l-.489.489-1.921.64.64-1.921Zm2.561,0L21,17.581l4.353-4.357L26.635,14.5Zm6.567-6.572-.934.934-1.281-1.281.934-.935a.906.906,0,1,1,1.28,1.281Z" transform="translate(-0.018)"/>
      </g>
    </g>
    <g id="Group_16" data-name="Group 16" transform="translate(3.622 9.056)">
      <g id="Group_15" data-name="Group 15">
        <path id="Path_40" data-name="Path 40" class="cls-1" d="M73.6,150H60.924a.906.906,0,0,0,0,1.811H73.6a.906.906,0,0,0,0-1.811Z" transform="translate(-60.018 -150)"/>
      </g>
    </g>
    <g id="Group_18" data-name="Group 18" transform="translate(3.622 12.678)">
      <g id="Group_17" data-name="Group 17">
        <path id="Path_41" data-name="Path 41" class="cls-1" d="M69.979,210H60.924a.906.906,0,0,0,0,1.811h9.056a.906.906,0,0,0,0-1.811Z" transform="translate(-60.018 -210)"/>
      </g>
    </g>
    <g id="Group_20" data-name="Group 20" transform="translate(3.622 16.3)">
      <g id="Group_19" data-name="Group 19">
        <path id="Path_42" data-name="Path 42" class="cls-1" d="M69.979,270H60.924a.906.906,0,1,0,0,1.811h9.056a.906.906,0,1,0,0-1.811Z" transform="translate(-60.018 -270)"/>
      </g>
    </g>
    <g id="Group_22" data-name="Group 22" transform="translate(3.622 19.923)">
      <g id="Group_21" data-name="Group 21">
        <path id="Path_43" data-name="Path 43" class="cls-1" d="M69.979,330H60.924a.906.906,0,0,0,0,1.811h9.056a.906.906,0,0,0,0-1.811Z" transform="translate(-60.018 -330)"/>
      </g>
    </g>
    <g id="Group_24" data-name="Group 24" transform="translate(10.867 25.477)">
      <g id="Group_23" data-name="Group 23">
        <path id="Path_44" data-name="Path 44" class="cls-1" d="M186.357,422h-5.433a.906.906,0,1,0,0,1.811h5.433a.906.906,0,1,0,0-1.811Z" transform="translate(-180.018 -422)"/>
      </g>
    </g>
    <line id="Line_11" data-name="Line 11" class="cls-2" x1="7.5" y2="0.5" transform="translate(-9 15.41)"/>
  </g>
</svg>
