<svg xmlns="http://www.w3.org/2000/svg" width="36.179" height="36.181" viewBox="0 0 36.179 36.181"><path d="M35.264,11.386a3.184,3.184,0,0,0-4.5,0l-3.189,3.192v-8.4a3.159,3.159,0,0,0-.931-2.249l-3-3A3.159,3.159,0,0,0,21.4,0H3.2A3.184,3.184,0,0,0,.018,3.18V33a3.184,3.184,0,0,0,3.18,3.18H24.4A3.184,3.184,0,0,0,27.578,33V23.576l7.687-7.693A3.178,3.178,0,0,0,35.264,11.386ZM21.218,2.12a1.157,1.157,0,0,1,.931.31l3,3a1.157,1.157,0,0,1,.311.931h-4.24ZM25.458,33a1.061,1.061,0,0,1-1.06,1.06H3.2A1.061,1.061,0,0,1,2.138,33V3.18A1.061,1.061,0,0,1,3.2,2.12H19.1v5.3a1.06,1.06,0,0,0,1.06,1.06h5.3V16.7L22.33,19.83l-1.5,1.5a1.06,1.06,0,0,0-.256.414l-1.5,4.5a1.06,1.06,0,0,0,1.341,1.341l4.5-1.5a1.059,1.059,0,0,0,.414-.256l.129-.129V33ZM23.081,22.078l1.5,1.5-.573.573-2.249.749.749-2.249Zm3,0-1.5-1.5,5.1-5.1,1.5,1.5Zm7.687-7.693-1.093,1.094-1.5-1.5,1.093-1.094a1.06,1.06,0,1,1,1.5,1.5Z" transform="translate(-0.018)" fill="#484848"/></svg>