<svg xmlns="http://www.w3.org/2000/svg" width="32.809" height="23.753" viewBox="0 0 32.809 23.753"><g transform="translate(0)"><path d="M67.005,0l-5.76.008a.822.822,0,0,0-.85.785.82.82,0,0,0,.834.8h.017l3.73-.008-9.136,8.576L52.648,7.18a.97.97,0,0,0-1.2,0L35.284,22.413a.749.749,0,0,0,0,1.111.892.892,0,0,0,1.2,0L52.058,8.846l3.191,3.031a.867.867,0,0,0,.6.254.921.921,0,0,0,.6-.254l9.718-9.163-.008,3.53a.842.842,0,0,0,1.684,0L67.847.8A.828.828,0,0,0,67.005,0Z" transform="translate(-35.038 0)" fill="#484848"/></g></svg>