<svg xmlns="http://www.w3.org/2000/svg" width="39.476" height="39.595" viewBox="0 0 39.476 39.595"><g transform="translate(-0.769)"><g transform="translate(0.769 0)"><path d="M39.806,34.588a.581.581,0,0,0-.7.422,4.513,4.513,0,0,1-.8,1.657,3.787,3.787,0,0,0-1.58-2.361,2.333,2.333,0,0,0,.234-1.021,2.245,2.245,0,1,0-4.49,0,2.333,2.333,0,0,0,.234,1.021,3.787,3.787,0,0,0-1.578,2.354,4.522,4.522,0,0,1,3.59-7.277A4.555,4.555,0,0,1,39.045,32.6a.58.58,0,0,0,1.111-.335,5.731,5.731,0,0,0-2.023-2.9,5.627,5.627,0,0,0-2.841-1.114V25.245a1.422,1.422,0,0,0-1.42-1.42H21.156v-2.4a2.212,2.212,0,0,0,2.074-2.2.875.875,0,0,1,1.5-.62,2.212,2.212,0,0,0,3.125,0l.618-.619a2.212,2.212,0,0,0,0-3.125.876.876,0,0,1,.62-1.5H29.1a2.206,2.206,0,0,0,1.57-.641,2.124,2.124,0,0,0,.627-1.516v-.98a2.125,2.125,0,0,0-.627-1.516,2.206,2.206,0,0,0-1.578-.641.875.875,0,0,1-.623-1.5,2.212,2.212,0,0,0,0-3.125l-.656-.656A2.124,2.124,0,0,0,26.3,2.164h0a2.207,2.207,0,0,0-1.57.663.875.875,0,0,1-1.5-.617A2.212,2.212,0,0,0,21.02,0h-.875a2.212,2.212,0,0,0-2.21,2.209.875.875,0,0,1-1.5.62,2.212,2.212,0,0,0-3.125,0l-.618.618a2.212,2.212,0,0,0,0,3.125.875.875,0,0,1-.62,1.5h-.012a2.206,2.206,0,0,0-1.57.641,2.124,2.124,0,0,0-.627,1.516v.927a2.212,2.212,0,0,0,2.21,2.21.876.876,0,0,1,.62,1.5,2.212,2.212,0,0,0,0,3.125l.618.618a2.212,2.212,0,0,0,3.125,0,.875.875,0,0,1,1.5.62A2.212,2.212,0,0,0,20,21.426v2.4H7.3a1.422,1.422,0,0,0-1.42,1.42v3.008a5.686,5.686,0,1,0,1.161,0V25.245a.26.26,0,0,1,.26-.26H20v3.268a5.686,5.686,0,1,0,1.161,0V24.985H33.871a.26.26,0,0,1,.26.26v3.008a5.686,5.686,0,1,0,6.1,7.04.581.581,0,0,0-.422-.7ZM19.1,19.222a2.036,2.036,0,0,0-3.478-1.441,1.05,1.05,0,0,1-1.483,0l-.618-.618a1.05,1.05,0,0,1,0-1.483A2.037,2.037,0,0,0,12.077,12.2a1.05,1.05,0,0,1-1.049-1.049v-.927a.972.972,0,0,1,.286-.694,1.053,1.053,0,0,1,.751-.3h.012a2.037,2.037,0,0,0,1.441-3.478,1.05,1.05,0,0,1,0-1.483l.618-.618a1.05,1.05,0,0,1,1.483,0A2.037,2.037,0,0,0,19.1,2.209a1.05,1.05,0,0,1,1.049-1.049h.875a1.05,1.05,0,0,1,1.049,1.049,2.037,2.037,0,0,0,3.483,1.435,1.054,1.054,0,0,1,.748-.32h0a.972.972,0,0,1,.691.288l.656.656a1.05,1.05,0,0,1,0,1.483A2.037,2.037,0,0,0,29.09,9.23H29.1a1.053,1.053,0,0,1,.751.3.971.971,0,0,1,.286.694v.98a.971.971,0,0,1-.286.694,1.053,1.053,0,0,1-.751.3H29.09a2.037,2.037,0,0,0-1.441,3.478,1.05,1.05,0,0,1,0,1.483l-.618.618a1.05,1.05,0,0,1-1.483,0,2.037,2.037,0,0,0-3.478,1.441,1.05,1.05,0,0,1-1.049,1.049h-.875A1.05,1.05,0,0,1,19.1,19.222ZM3.939,37.669A2.7,2.7,0,0,1,5.207,35.2a2.194,2.194,0,0,0,2.5,0A2.642,2.642,0,0,1,8.97,37.433v.236a4.515,4.515,0,0,1-5.031,0Zm2.515-3.242a1.142,1.142,0,1,1,1.084-1.14,1.115,1.115,0,0,1-1.084,1.14Zm4.525-.518a4.5,4.5,0,0,1-.936,2.751,3.787,3.787,0,0,0-1.578-2.354A2.333,2.333,0,0,0,8.7,33.286a2.245,2.245,0,1,0-4.49,0,2.333,2.333,0,0,0,.234,1.021A3.787,3.787,0,0,0,2.865,36.66a4.524,4.524,0,1,1,8.115-2.751Zm7.08,3.76v-.236A2.643,2.643,0,0,1,19.328,35.2a2.194,2.194,0,0,0,2.5,0,2.643,2.643,0,0,1,1.267,2.235v.236a4.515,4.515,0,0,1-5.031,0Zm2.515-3.242a1.142,1.142,0,1,1,1.084-1.14A1.115,1.115,0,0,1,20.576,34.427Zm4.525-.518a4.5,4.5,0,0,1-.936,2.751,3.787,3.787,0,0,0-1.578-2.354,2.333,2.333,0,0,0,.234-1.021,2.246,2.246,0,1,0-4.49,0,2.333,2.333,0,0,0,.234,1.021,3.787,3.787,0,0,0-1.578,2.354A4.524,4.524,0,1,1,25.1,33.909Zm9.61-1.763a1.142,1.142,0,1,1-1.084,1.14A1.115,1.115,0,0,1,34.711,32.146ZM32.2,37.669v-.236A2.643,2.643,0,0,1,33.463,35.2a2.194,2.194,0,0,0,2.5,0,2.643,2.643,0,0,1,1.267,2.235v.241a4.527,4.527,0,0,1-5.031,0Z" transform="translate(-0.769 0)" fill="#484848"/><path d="M202.754,86.18a4.792,4.792,0,1,0-4.843-6.336.58.58,0,1,0,1.1.378,3.631,3.631,0,0,1,7.059,1.414A3.632,3.632,0,0,1,199,82.56a.58.58,0,1,0-1.1.371A4.8,4.8,0,0,0,202.754,86.18Z" transform="translate(-182.629 -70.683)" fill="#484848"/></g></g></svg>