<svg xmlns="http://www.w3.org/2000/svg" width="37.997" height="37.857" viewBox="0 0 37.997 37.857"><path d="M48,448h1.112v1.112H48Zm0,0" transform="translate(-44.663 -413.48)" fill="#484848"/><path d="M80,448h1.112v1.112H80Zm0,0" transform="translate(-74.439 -413.48)" fill="#484848"/><path d="M112,448h1.112v1.112H112Zm0,0" transform="translate(-103.394 -413.48)" fill="#484848"/><path d="M384,448h4.449v1.112H384Zm0,0" transform="translate(-353.789 -413.48)" fill="#484848"/><path d="M36.771,31.751V11.6a3.062,3.062,0,0,0-3.064-3.053H31.868a8.58,8.58,0,0,0-17.16,0H4.29A3.062,3.062,0,0,0,1.226,11.6v20.15H0V34.8a3.062,3.062,0,0,0,3.064,3.053H34.932A3.062,3.062,0,0,0,38,34.8V31.751ZM33.707,9.77A1.838,1.838,0,0,1,35.545,11.6v20.15H34.319V12.212a1.225,1.225,0,0,0-1.226-1.221H31.507A8.461,8.461,0,0,0,31.77,9.77ZM16.29,6.3l6.5,2.7,2.227,6.656a7.328,7.328,0,0,1-9.088-7.113A7.266,7.266,0,0,1,16.29,6.3Zm9.9,8.976-2.2-6.567L28.9,3.822A7.3,7.3,0,0,1,26.186,15.28Zm-2.9-14.059a7.336,7.336,0,0,1,4.744,1.737L23.145,7.827l-6.38-2.648a7.359,7.359,0,0,1,6.523-3.958ZM2.451,11.6A1.838,1.838,0,0,1,4.29,9.77H14.806a8.382,8.382,0,0,0,.263,1.221H4.9a1.225,1.225,0,0,0-1.226,1.221V31.751H2.451ZM36.771,34.8a1.838,1.838,0,0,1-1.839,1.832H3.064A1.838,1.838,0,0,1,1.226,34.8V32.972H13.852a4.772,4.772,0,0,0,3.2,1.221h3.887a4.772,4.772,0,0,0,3.2-1.221h7.723V31.751H23.647l-.18.179a3.555,3.555,0,0,1-2.526,1.042H17.054a3.556,3.556,0,0,1-2.526-1.042l-.179-.179H4.9V12.212H15.548a8.575,8.575,0,0,0,15.48,0h2.065v20.76h3.677Zm0,0" fill="#484848"/><path d="M104.955,291.337a2.118,2.118,0,0,0-1.063.281l-2.232-1.455a1.45,1.45,0,0,0,.1-.494,1.939,1.939,0,0,0-3.839,0,1.46,1.46,0,0,0,.113.544L94.446,292.7a2.116,2.116,0,0,0-2.153.082l-2.759-1.6a1.433,1.433,0,0,0,.065-.406,1.939,1.939,0,0,0-3.839,0,1.433,1.433,0,0,0,.065.406l-2.759,1.6a2.091,2.091,0,0,0-1.145-.337,1.685,1.685,0,1,0,1.92,1.668,1.432,1.432,0,0,0-.065-.406l2.759-1.6a2.113,2.113,0,0,0,2.29,0l2.759,1.6a1.436,1.436,0,0,0-.065.406,1.939,1.939,0,0,0,3.839,0,1.46,1.46,0,0,0-.113-.544l3.584-2.492a2.136,2.136,0,0,0,2.071-.026l2.232,1.455a1.45,1.45,0,0,0-.1.494,1.939,1.939,0,1,0,1.92-1.668ZM81.92,294.673a.562.562,0,1,1,.64-.556A.6.6,0,0,1,81.92,294.673Zm5.759-3.337a.562.562,0,1,1,.64-.556A.6.6,0,0,1,87.678,291.337Zm5.759,3.337a.562.562,0,1,1,.64-.556A.6.6,0,0,1,93.437,294.673Zm6.4-4.449a.562.562,0,1,1,.64-.556A.6.6,0,0,1,99.836,290.224Zm5.119,3.337a.562.562,0,1,1,.64-.556A.6.6,0,0,1,104.955,293.561Zm0,0" transform="translate(-74.439 -265.446)" fill="#484848"/><path d="M88.9,176H80v7.785h8.9Zm-1.112,6.673H81.112v-5.561h6.673Zm0,0" transform="translate(-73.674 -162.217)" fill="#484848"/><path d="M112,208h4.449v1.112H112Zm0,0" transform="translate(-103.302 -192.077)" fill="#484848"/><path d="M112,240h4.449v1.112H112Zm0,0" transform="translate(-103.302 -221.628)" fill="#484848"/><path d="M224,256h1.112v1.112H224Zm0,0" transform="translate(-206.787 -236.403)" fill="#484848"/><path d="M256,256h11.122v1.112H256Zm0,0" transform="translate(-235.524 -236.403)" fill="#484848"/></svg>