<svg id="market-charts" xmlns="http://www.w3.org/2000/svg" width="33.174" height="33.243" viewBox="0 0 33.174 33.243">
  <defs>
    <style>
      .cls-1 {
        fill: #313131;
      }
    </style>
  </defs>
  <path id="Path_53" data-name="Path 53" class="cls-1" d="M48,448h1.112v1.112H48Zm0,0" transform="translate(-44.663 -418.094)"/>
  <path id="Path_54" data-name="Path 54" class="cls-1" d="M80,448h1.112v1.112H80Zm0,0" transform="translate(-74.439 -418.094)"/>
  <path id="Path_55" data-name="Path 55" class="cls-1" d="M112,448h1.112v1.112H112Zm0,0" transform="translate(-104.519 -418.094)"/>
  <path id="Path_56" data-name="Path 56" class="cls-1" d="M384,448h4.449v1.112H384Zm0,0" transform="translate(-358.612 -418.094)"/>
  <path id="Path_57" data-name="Path 57" class="cls-1" d="M32.1,27.881V10.187a2.681,2.681,0,0,0-2.675-2.681H27.823a7.491,7.491,0,1,0-14.982,0h-9.1A2.681,2.681,0,0,0,1.07,10.187V27.881H0v2.681a2.681,2.681,0,0,0,2.675,2.681H30.5a2.681,2.681,0,0,0,2.675-2.681V27.881Zm-2.675-19.3a1.609,1.609,0,0,1,1.605,1.609V27.881h-1.07V10.723a1.072,1.072,0,0,0-1.07-1.072H27.508a7.467,7.467,0,0,0,.23-1.072ZM14.222,5.536,19.9,7.908l1.945,5.845a6.423,6.423,0,0,1-7.624-8.216Zm8.64,7.882L20.944,7.651,25.23,3.356a6.429,6.429,0,0,1-2.368,10.061ZM20.332,1.072A6.383,6.383,0,0,1,24.474,2.6L20.208,6.873,14.637,4.548a6.42,6.42,0,0,1,5.7-3.475ZM2.14,10.187A1.609,1.609,0,0,1,3.745,8.579h9.182a7.4,7.4,0,0,0,.23,1.072H4.28a1.072,1.072,0,0,0-1.07,1.072V27.881H2.14ZM32.1,30.562A1.609,1.609,0,0,1,30.5,32.17H2.675A1.609,1.609,0,0,1,1.07,30.562V28.953H12.093a4.153,4.153,0,0,0,2.8,1.072h3.394a4.153,4.153,0,0,0,2.8-1.072h6.742V27.881H20.646l-.157.157a3.094,3.094,0,0,1-2.206.915H14.89a3.1,3.1,0,0,1-2.206-.915l-.156-.157H4.28V10.724h9.294a7.468,7.468,0,0,0,13.516,0h1.8v18.23H32.1Zm0,0"/>
  <path id="Path_58" data-name="Path 58" class="cls-1" d="M100.477,291.337a1.5,1.5,0,0,0-.872.281l-1.832-1.455a1.732,1.732,0,0,0,.079-.494,1.578,1.578,0,1,0-3.15,0,1.739,1.739,0,0,0,.093.544L91.853,292.7a1.474,1.474,0,0,0-1.767.082l-2.264-1.6a1.722,1.722,0,0,0,.053-.406,1.578,1.578,0,1,0-3.15,0,1.722,1.722,0,0,0,.053.406l-2.264,1.6a1.5,1.5,0,0,0-.939-.337,1.671,1.671,0,1,0,1.575,1.668,1.721,1.721,0,0,0-.053-.406l2.264-1.6a1.478,1.478,0,0,0,1.879,0l2.264,1.6a1.726,1.726,0,0,0-.053.406,1.578,1.578,0,1,0,3.15,0,1.739,1.739,0,0,0-.093-.544l2.941-2.492a1.482,1.482,0,0,0,1.7-.026l1.832,1.455A1.731,1.731,0,0,0,98.9,293a1.578,1.578,0,1,0,1.575-1.668Zm-18.9,3.337a.557.557,0,1,1,.525-.556A.542.542,0,0,1,81.575,294.673Zm4.725-3.337a.557.557,0,1,1,.525-.556A.542.542,0,0,1,86.3,291.337Zm4.725,3.337a.557.557,0,1,1,.525-.556A.542.542,0,0,1,91.026,294.673Zm5.25-4.449a.557.557,0,1,1,.525-.556A.542.542,0,0,1,96.276,290.224Zm4.2,3.337A.557.557,0,1,1,101,293,.542.542,0,0,1,100.477,293.561Zm0,0" transform="translate(-74.439 -268.907)"/>
  <path id="Path_59" data-name="Path 59" class="cls-1" d="M88.9,176H80v7.785h8.9Zm-1.112,6.673H81.112v-5.561h6.673Zm0,0" transform="translate(-74.723 -164.332)"/>
  <path id="Path_60" data-name="Path 60" class="cls-1" d="M112,208h4.449v1.112H112Zm0,0" transform="translate(-104.553 -194.077)"/>
  <path id="Path_61" data-name="Path 61" class="cls-1" d="M112,240h4.449v1.112H112Zm0,0" transform="translate(-104.553 -223.935)"/>
  <path id="Path_62" data-name="Path 62" class="cls-1" d="M224,256h1.112v1.112H224Zm0,0" transform="translate(-209.038 -238.864)"/>
  <path id="Path_63" data-name="Path 63" class="cls-1" d="M256,256h11.122v1.112H256Zm0,0" transform="translate(-239.199 -238.864)"/>
</svg>
