<svg xmlns="http://www.w3.org/2000/svg" width="36" height="35.859" viewBox="0 0 36 35.859"><path d="M32.836,1H3.164A3.168,3.168,0,0,0,0,4.164V33.7a3.168,3.168,0,0,0,3.164,3.164H32.836A3.168,3.168,0,0,0,36,33.7V4.164A3.168,3.168,0,0,0,32.836,1ZM3.164,3.109H32.836a1.056,1.056,0,0,1,1.055,1.055V9.438H2.109V4.164A1.056,1.056,0,0,1,3.164,3.109ZM32.836,34.75H3.164A1.056,1.056,0,0,1,2.109,33.7V11.547H33.891V33.7A1.056,1.056,0,0,1,32.836,34.75Z" transform="translate(0 -1)" fill="#3a3a3a"/><path d="M203.795,196.082a1.055,1.055,0,0,0-1.385.554L196.082,211.4a1.055,1.055,0,1,0,1.939.831l6.328-14.766A1.055,1.055,0,0,0,203.795,196.082Z" transform="translate(-182.215 -182.286)" fill="#3a3a3a"/><path d="M83.155,241.4a1.055,1.055,0,0,0-1.482-.165L76.4,245.449a1.055,1.055,0,0,0,0,1.647l5.273,4.219a1.055,1.055,0,1,0,1.318-1.647l-4.244-3.4,4.244-3.4A1.055,1.055,0,0,0,83.155,241.4Z" transform="translate(-70.66 -224.124)" fill="#3a3a3a"/><path d="M337.986,245.449l-5.273-4.219a1.055,1.055,0,1,0-1.318,1.647l4.244,3.4-4.244,3.4a1.055,1.055,0,1,0,1.318,1.647l5.273-4.219A1.055,1.055,0,0,0,337.986,245.449Z" transform="translate(-307.726 -224.124)" fill="#3a3a3a"/><circle cx="1" cy="1" r="1" transform="translate(4 3.859)" fill="#3a3a3a"/><ellipse cx="1.5" cy="1" rx="1.5" ry="1" transform="translate(8 3.859)" fill="#3a3a3a"/><circle cx="1" cy="1" r="1" transform="translate(13 3.859)" fill="#3a3a3a"/><path d="M332.055,63.109h6.328a1.055,1.055,0,1,0,0-2.109h-6.328a1.055,1.055,0,1,0,0,2.109Z" transform="translate(-307.727 -56.781)" fill="#3a3a3a"/></svg>