<svg xmlns="http://www.w3.org/2000/svg" width="37.39" height="37.39" viewBox="0 0 37.39 37.39"><path d="M19.868,37.39H17.521a3.446,3.446,0,0,1-3.442-3.442v-.794a15.1,15.1,0,0,1-2.344-.973l-.563.563a3.442,3.442,0,0,1-4.868,0L4.646,31.084a3.442,3.442,0,0,1,0-4.868l.562-.562a15.1,15.1,0,0,1-.973-2.344H3.442A3.446,3.446,0,0,1,0,19.868V17.521A3.446,3.446,0,0,1,3.442,14.08h.794a15.1,15.1,0,0,1,.973-2.344l-.563-.563a3.442,3.442,0,0,1,0-4.868L6.305,4.646a3.442,3.442,0,0,1,4.868,0l.562.562a15.109,15.109,0,0,1,2.344-.973V3.442A3.446,3.446,0,0,1,17.522,0h2.347A3.446,3.446,0,0,1,23.31,3.442v.794a15.094,15.094,0,0,1,2.344.973l.563-.563a3.442,3.442,0,0,1,4.868,0l1.659,1.658a3.442,3.442,0,0,1,0,4.868l-.562.562a15.1,15.1,0,0,1,.973,2.344h.794a3.446,3.446,0,0,1,3.442,3.442v2.347a3.446,3.446,0,0,1-3.442,3.442h-.794a15.1,15.1,0,0,1-.973,2.344l.563.563a3.442,3.442,0,0,1,0,4.868l-1.659,1.659a3.442,3.442,0,0,1-4.868,0l-.562-.562a15.109,15.109,0,0,1-2.344.973v.794A3.446,3.446,0,0,1,19.868,37.39ZM12.1,29.88a12.912,12.912,0,0,0,3.347,1.389,1.1,1.1,0,0,1,.822,1.061v1.617A1.253,1.253,0,0,0,17.522,35.2h2.347a1.253,1.253,0,0,0,1.251-1.251V32.33a1.1,1.1,0,0,1,.822-1.061,12.912,12.912,0,0,0,3.347-1.389,1.1,1.1,0,0,1,1.332.168l1.146,1.146a1.251,1.251,0,0,0,1.769,0l1.66-1.66a1.251,1.251,0,0,0,0-1.769L30.049,26.62a1.1,1.1,0,0,1-.168-1.332,12.91,12.91,0,0,0,1.389-3.347,1.1,1.1,0,0,1,1.061-.822h1.617A1.253,1.253,0,0,0,35.2,19.868V17.522a1.253,1.253,0,0,0-1.251-1.251H32.33a1.1,1.1,0,0,1-1.061-.822A12.912,12.912,0,0,0,29.88,12.1a1.1,1.1,0,0,1,.168-1.332l1.146-1.146a1.251,1.251,0,0,0,0-1.769L29.535,6.2a1.251,1.251,0,0,0-1.769,0L26.62,7.341a1.1,1.1,0,0,1-1.332.168A12.912,12.912,0,0,0,21.941,6.12a1.1,1.1,0,0,1-.822-1.061V3.442a1.253,1.253,0,0,0-1.251-1.251H17.522A1.253,1.253,0,0,0,16.27,3.442V5.059a1.1,1.1,0,0,1-.822,1.061A12.912,12.912,0,0,0,12.1,7.509a1.1,1.1,0,0,1-1.332-.168L9.624,6.2a1.251,1.251,0,0,0-1.769,0L6.2,7.854a1.251,1.251,0,0,0,0,1.769L7.341,10.77A1.1,1.1,0,0,1,7.509,12.1,12.91,12.91,0,0,0,6.12,15.449a1.1,1.1,0,0,1-1.061.822H3.442a1.253,1.253,0,0,0-1.251,1.251v2.347a1.253,1.253,0,0,0,1.251,1.251H5.059a1.1,1.1,0,0,1,1.061.822,12.912,12.912,0,0,0,1.389,3.347,1.1,1.1,0,0,1-.168,1.332L6.2,27.766a1.251,1.251,0,0,0,0,1.769l1.66,1.66a1.251,1.251,0,0,0,1.769,0l1.146-1.146A1.1,1.1,0,0,1,12.1,29.88Z" transform="translate(0 0)" fill="#484848"/><path d="M152.735,160.87a8.135,8.135,0,1,1,8.135-8.135A8.144,8.144,0,0,1,152.735,160.87Zm0-14.08a5.944,5.944,0,1,0,5.944,5.944A5.951,5.951,0,0,0,152.735,146.791Z" transform="translate(-134.04 -134.04)" fill="#484848"/></svg>