<svg xmlns="http://www.w3.org/2000/svg" width="37.249" height="37.249" viewBox="0 0 37.249 37.249"><path d="M32.948,22.014h6.158a1.493,1.493,0,1,0,0-1.1H32.948v-2.7h3.969a.55.55,0,0,0,.55-.55V14.041h1.639a1.493,1.493,0,1,0,0-1.1H36.917a.55.55,0,0,0-.55.55v3.624H32.948V14.327a.55.55,0,0,0-.55-.55H29.61V10.358h3.624a.55.55,0,0,0,.55-.55V7.619a1.492,1.492,0,1,0-1.1,0V9.258H29.06a.55.55,0,0,0-.55.55v3.969h-2.7V7.62a1.492,1.492,0,1,0-1.1,0v6.158h-2.7V7.619a1.493,1.493,0,1,0-1.1,0v6.158h-2.7V9.808a.55.55,0,0,0-.55-.55H14.041V7.619a1.493,1.493,0,1,0-1.1,0V9.808a.55.55,0,0,0,.55.55h3.624v3.419H14.327a.55.55,0,0,0-.55.55v2.788H10.358V13.491a.55.55,0,0,0-.55-.55H7.62a1.493,1.493,0,1,0,0,1.1H9.258v3.624a.55.55,0,0,0,.55.55h3.969v2.7H7.62a1.492,1.492,0,1,0,0,1.1h6.158v2.7H7.619a1.493,1.493,0,1,0,0,1.1h6.158v2.7H9.808a.55.55,0,0,0-.55.55v3.624H7.619a1.493,1.493,0,1,0,0,1.1H9.808a.55.55,0,0,0,.55-.55V29.61h3.419V32.4a.55.55,0,0,0,.55.55h2.788v3.419H13.491a.55.55,0,0,0-.55.55v2.189a1.492,1.492,0,1,0,1.1,0V37.467h3.624a.55.55,0,0,0,.55-.55V32.948h2.7v6.158a1.492,1.492,0,1,0,1.1,0V32.948h2.7v6.158a1.493,1.493,0,1,0,1.1,0V32.948h2.7v3.969a.55.55,0,0,0,.55.55h3.624v1.639a1.493,1.493,0,1,0,1.1,0V36.917a.55.55,0,0,0-.55-.55H29.61V32.948H32.4a.55.55,0,0,0,.55-.55V29.61h3.419v3.624a.55.55,0,0,0,.55.55h2.189a1.492,1.492,0,1,0,0-1.1H37.467V29.06a.55.55,0,0,0-.55-.55H32.948v-2.7h6.158a1.492,1.492,0,1,0,0-1.1H32.948Zm7.543-.943a.393.393,0,1,1-.393.393.393.393,0,0,1,.393-.393Zm0-7.973a.393.393,0,1,1-.393.393.393.393,0,0,1,.393-.393ZM33.234,5.842a.393.393,0,1,1-.393.393A.393.393,0,0,1,33.234,5.842Zm-7.973,0a.393.393,0,1,1-.393.393.393.393,0,0,1,.393-.393Zm-3.8,0a.393.393,0,1,1-.393.393.393.393,0,0,1,.393-.393Zm-7.973,0a.393.393,0,1,1-.393.393.393.393,0,0,1,.393-.393ZM6.235,13.884a.393.393,0,1,1,.393-.393.393.393,0,0,1-.393.393Zm0,7.973a.393.393,0,1,1,.393-.393A.393.393,0,0,1,6.235,21.857Zm0,3.8a.393.393,0,1,1,.393-.393A.393.393,0,0,1,6.235,25.654Zm0,7.973a.393.393,0,1,1,.393-.393A.393.393,0,0,1,6.235,33.627Zm7.256,7.256a.393.393,0,1,1,.393-.393.393.393,0,0,1-.393.393Zm7.973,0a.393.393,0,1,1,.393-.393.393.393,0,0,1-.393.393Zm3.8,0a.393.393,0,1,1,.393-.393A.393.393,0,0,1,25.261,40.883Zm7.973,0a.393.393,0,1,1,.393-.393.393.393,0,0,1-.393.393Zm7.256-8.042a.393.393,0,1,1-.393.393.393.393,0,0,1,.393-.393Zm0-7.973a.393.393,0,1,1-.393.393.393.393,0,0,1,.393-.393Zm-8.643,6.979H14.877V14.877H31.848Z" transform="translate(-4.738 -4.738)" fill="#484848"/><path d="M55.464,42.5H43.05a.55.55,0,0,0-.55.55V55.464a.55.55,0,0,0,.55.55H55.464a.55.55,0,0,0,.55-.55V43.05a.55.55,0,0,0-.55-.55Zm-.55,12.414H43.6V43.6H54.914Z" transform="translate(-30.632 -30.632)" fill="#484848"/><path d="M76.55,57.411a.55.55,0,0,0,.55-.55v-3.1a.55.55,0,0,0-1.1,0v3.1A.55.55,0,0,0,76.55,57.411Z" transform="translate(-53.604 -37.975)" fill="#484848"/></svg>