<svg xmlns="http://www.w3.org/2000/svg" width="39.44" height="39.44" viewBox="0 0 39.44 39.44"><circle cx="1" cy="1" r="1" transform="translate(28 11.44)" fill="#484848"/><ellipse cx="1" cy="1.5" rx="1" ry="1.5" transform="translate(28 15.44)" fill="#484848"/><ellipse cx="1" cy="1.5" rx="1" ry="1.5" transform="translate(5 9.44)" fill="#484848"/><path d="M333.155,342.311h2.311a1.155,1.155,0,1,0,0-2.311h-2.311a1.155,1.155,0,1,0,0,2.311Z" transform="translate(-306.426 -313.809)" fill="#484848"/><path d="M35.2,10.784h-.477A7.329,7.329,0,0,0,27.5,4.622h-.385V2.7a2.7,2.7,0,0,0-2.7-2.7H19.8a2.7,2.7,0,0,0-2.7,2.7V4.622H13.943V2.7a1.155,1.155,0,0,0-2.311,0V4.622H8.473V2.7a1.155,1.155,0,1,0-2.311,0V4.622H5.777A5.784,5.784,0,0,0,0,10.4v5.392a1.155,1.155,0,0,0,1.155,1.155h.385V18.1A3.472,3.472,0,0,0,3.852,21.37v1.354a1.155,1.155,0,1,0,2.311,0V21.37A3.472,3.472,0,0,0,8.473,18.1V16.947h.385a1.155,1.155,0,0,0,.961-.515l1.2-1.8h6.468a5.777,5.777,0,0,1,0,11.555H2.7a2.7,2.7,0,0,0-2.7,2.7v7.7a1.155,1.155,0,0,0,1.155,1.155H3.081v.539a1.155,1.155,0,0,0,2.311,0v-.539H29.426v.539a1.155,1.155,0,0,0,2.311,0v-.539h1.926a1.155,1.155,0,0,0,1.155-1.155V31.583h1.155a1.155,1.155,0,1,0,0-2.311H34.818V26.961h1.155a1.155,1.155,0,1,0,0-2.311H34.818V22.339H35.2A4.242,4.242,0,0,0,39.44,18.1V15.021A4.242,4.242,0,0,0,35.2,10.784ZM19.412,2.7a.386.386,0,0,1,.385-.385h4.622A.386.386,0,0,1,24.8,2.7V4.622H19.412ZM6.163,18.1a1.155,1.155,0,1,1-2.311,0V16.947H6.163Zm19.412,2.311a8.1,8.1,0,0,0-8.088-8.088H10.4a1.155,1.155,0,0,0-.961.515l-1.2,1.8H2.311V10.4A3.47,3.47,0,0,1,5.777,6.933H27.5a5.013,5.013,0,0,1,5.007,5.007V30.813H11.555V28.5h5.931A8.1,8.1,0,0,0,25.574,20.413ZM2.311,28.887A.386.386,0,0,1,2.7,28.5H9.244v2.311H2.311Zm30.2,6.548H2.311V33.123h30.2ZM37.129,18.1A1.928,1.928,0,0,1,35.2,20.028h-.385V13.1H35.2a1.928,1.928,0,0,1,1.926,1.926Z" fill="#484848"/></svg>