<svg id="sewing-machine" xmlns="http://www.w3.org/2000/svg" width="34" height="34" viewBox="0 0 34 34">
  <defs>
    <style>
      .cls-1 {
        fill: #313131;
      }
    </style>
  </defs>
  <circle id="Ellipse_5" data-name="Ellipse 5" class="cls-1" cx="1" cy="1" r="1" transform="translate(24 10)"/>
  <ellipse id="Ellipse_6" data-name="Ellipse 6" class="cls-1" cx="1" cy="1.5" rx="1" ry="1.5" transform="translate(24 13)"/>
  <ellipse id="Ellipse_7" data-name="Ellipse 7" class="cls-1" cx="1" cy="1.5" rx="1" ry="1.5" transform="translate(4 8)"/>
  <path id="Path_34" data-name="Path 34" class="cls-1" d="M333,341.992h1.992a1,1,0,0,0,0-1.992H333a1,1,0,0,0,0,1.992Z" transform="translate(-309.953 -317.422)"/>
  <path id="Path_35" data-name="Path 35" class="cls-1" d="M30.348,9.3h-.411a6.318,6.318,0,0,0-6.23-5.313h-.332V2.324A2.327,2.327,0,0,0,21.051,0H17.066a2.327,2.327,0,0,0-2.324,2.324v1.66H12.02V2.324a1,1,0,0,0-1.992,0v1.66H7.3V2.324a1,1,0,1,0-1.992,0v1.66H4.98A4.986,4.986,0,0,0,0,8.965v4.648a1,1,0,0,0,1,1h.332v1A2.993,2.993,0,0,0,3.32,18.422V19.59a1,1,0,0,0,1.992,0V18.422A2.993,2.993,0,0,0,7.3,15.605v-1h.332a1,1,0,0,0,.829-.444L9.5,12.617h5.576a4.98,4.98,0,0,1,0,9.961H2.324A2.327,2.327,0,0,0,0,24.9v6.641a1,1,0,0,0,1,1h1.66V33a1,1,0,0,0,1.992,0v-.465H25.367V33a1,1,0,0,0,1.992,0v-.465h1.66a1,1,0,0,0,1-1V27.227h1a1,1,0,0,0,0-1.992h-1V23.242h1a1,1,0,0,0,0-1.992h-1V19.258h.332A3.656,3.656,0,0,0,34,15.605V12.949A3.656,3.656,0,0,0,30.348,9.3ZM16.734,2.324a.332.332,0,0,1,.332-.332h3.984a.332.332,0,0,1,.332.332v1.66H16.734ZM5.313,15.605a1,1,0,1,1-1.992,0v-1H5.313ZM22.047,17.6a6.981,6.981,0,0,0-6.973-6.973H8.965a1,1,0,0,0-.829.444L7.1,12.617H1.992V8.965A2.992,2.992,0,0,1,4.98,5.977H23.707a4.321,4.321,0,0,1,4.316,4.316v16.27H9.961V24.57h5.113A6.981,6.981,0,0,0,22.047,17.6ZM1.992,24.9a.332.332,0,0,1,.332-.332H7.969v1.992H1.992Zm26.031,5.645H1.992V28.555H28.023Zm3.984-14.941a1.662,1.662,0,0,1-1.66,1.66h-.332V11.289h.332a1.662,1.662,0,0,1,1.66,1.66Z"/>
</svg>
