<svg xmlns="http://www.w3.org/2000/svg" width="36.939" height="36.944" viewBox="0 0 36.939 36.944"><path d="M.49,29.352C7.811,36.673,7.106,36,7.167,36.03l1.426,1.425a1.663,1.663,0,0,0,2.348,0L18.2,30.2c.172.456-.228,0,7.428,6.912,1.369,1.236,3.875.807,5.053-.5l5.465-6.058a3.278,3.278,0,0,0-.443-4.611l-6.965-6.284,7.725-7.725a1.663,1.663,0,0,0,0-2.348l-8.1-8.1a1.7,1.7,0,0,0-2.348,0L17.3,10.195,8,1.341a1.244,1.244,0,0,0-1.755.038L2.19,5.593a1.257,1.257,0,0,0-.341.908l.16,3.585a1.247,1.247,0,0,0,.862,1.119l3.267,1.008.148,3.42a1.228,1.228,0,0,0,.871,1.119l2.73.85L.49,27a1.663,1.663,0,0,0,0,2.348Zm9.581,7.233a.443.443,0,0,1-.607,0L8.447,35.568l4.318-4.591a.616.616,0,1,0-.9-.844L7.575,34.7,5.848,32.969,7.826,30.99a.616.616,0,0,0-.871-.871L4.977,32.1,3.222,30.343a6.573,6.573,0,0,1,5.679-1.7,7.8,7.8,0,0,0,6.079-1.461,1.246,1.246,0,0,0,.744.673l2.248.7c.019.175.634-.506-7.9,8.028Zm25.156-6.851-5.465,6.058a2.616,2.616,0,0,1-3.313.408l-7.066-6.376c-.066-.058-.026.1-.285-2.335l7.366-8.171c.074,0-.48-.476,8.41,7.545a2.06,2.06,0,0,1,.353,2.871Zm.488-18.969c0,.256.6-.417-7.894,8.074-.475-.431-.747-.75-1.342-.752a1.253,1.253,0,0,0-.677.2l-1.359-1.293,1-1a.617.617,0,1,0-.874-.871l-1.022,1.026-2.217-2.113a6.568,6.568,0,0,1,5.528-1.563,7.8,7.8,0,0,0,6.933-2.2l.8-.808c1.11,1.11,1.127,1.07,1.127,1.3ZM26.877,2.358a.443.443,0,0,1,.607,0l1,1L26.747,5.1a.616.616,0,1,0,.871.871l1.741-1.741L31.1,5.974,29.359,7.716a.616.616,0,0,0,.871.871l1.741-1.741,1.743,1.743-.8.815a6.566,6.566,0,0,1-5.84,1.852,7.794,7.794,0,0,0-6.637,1.926l-2.244-2.137Zm-19.506,9.8A1.232,1.232,0,0,0,6.5,11.036L3.237,10.027,3.08,6.444l4.07-4.214,17.8,16.939c-7.1,7.872-6.933,7.5-7.049,8.072l-1.806-.56c-.03-.662-.123-2.683-.154-3.421a1.225,1.225,0,0,0-.869-1.119L11.8,21.125c-.158-3.493-.091-3.682-.408-4.1a1.359,1.359,0,0,0-.61-.443L7.518,15.578ZM1.361,27.875l9.105-9.105c.123,2.709.1,2.5.175,2.739L6.955,25.194a.616.616,0,1,0,.871.871l3.728-3.728,3.153.981.108,2.389a6.558,6.558,0,0,1-5.7,1.724,7.8,7.8,0,0,0-6.766,2.042l-.991-.991a.431.431,0,0,1,0-.607Z" transform="translate(-0.004 -0.997)" fill="#484848"/><path d="M37.665,12.993a.616.616,0,0,0,.871,0l1.742-1.741a.616.616,0,1,0-.871-.871l-1.741,1.741A.616.616,0,0,0,37.665,12.993Z" transform="translate(-14.406 -4.534)" fill="#484848"/><path d="M37.755,46.059l3.728,3.363a.616.616,0,0,0,.869-.044l5.887-6.524a.616.616,0,0,0-.045-.87l-3.728-3.363a.616.616,0,0,0-.87.045L37.71,45.188a.616.616,0,0,0,.044.871ZM44.1,39.948l2.815,2.54L41.851,48.1l-2.813-2.539Z" transform="translate(-14.432 -15.393)" fill="#484848"/><path d="M11.741,6.517a.616.616,0,0,0-.849.892c.965.919,1.017,1.036,1.334,1.036a.616.616,0,0,0,.425-1.062Z" transform="translate(-4.118 -3.056)" fill="#484848"/><path d="M21.2,16.993a.616.616,0,0,0,.425-1.062l-5.455-5.194a.616.616,0,0,0-.849.892l5.454,5.194a.616.616,0,0,0,.424.17Z" transform="translate(-5.824 -4.68)" fill="#484848"/></svg>